<svg width="67" height="40" viewBox="0 0 67 40" fill="none" xmlns="http://www.w3.org/2000/svg">
<path d="M33.355 0.0043487C33.3954 -0.007662 33.4086 0.00520661 33.3946 0.0429545L33.4209 0.094429L33.2891 0.300327L32.5775 2.23062L32.4457 2.74536L32.3139 3.49174L32.2612 4.49549L32.2876 4.52123V4.9845L32.3139 5.01024L32.3666 5.65367L32.5775 6.78611L32.9465 8.12444L33.355 9.19254L33.3682 9.10246L33.2628 8.63919L33.1574 7.71265L33.131 7.68691V7.45528L33.1046 7.42954L33.0783 6.63169L33.0519 6.60595V5.93678L33.0783 5.91104L33.1046 5.21614L33.131 5.1904V5.01024L33.2364 4.44402L33.4736 3.62043L33.5659 3.50461L33.6581 3.54322V3.77485L33.6845 3.80059V5.34482L33.7109 5.37056L33.7372 6.21989L33.7636 6.24563V6.52874L33.7899 6.55447L33.8426 7.27512L33.869 7.30085L33.8954 7.68691L33.9217 7.71265L33.9481 8.04723L34.1062 8.81935V8.94804L34.4225 10.4151L34.607 11.0328L34.6597 11.3673L34.5938 11.4059L34.4752 11.2129L34.1853 10.2349L34.0008 9.48852L33.7636 8.25313V8.09871L33.6581 7.53249V7.35233L33.6318 7.32659V7.14643L33.6054 7.12069L33.5527 6.32284L33.5264 6.2971V5.98825L33.5 5.96252L33.4605 4.27673L33.3155 4.83008V4.9845L33.2628 5.1904V5.42204L33.2364 5.44777L33.2101 6.78611L33.2364 6.81185V7.1979L33.2628 7.22364V7.50675L33.2891 7.53249L33.3419 8.17592L33.3682 8.20166V8.35608L33.3946 8.38182V8.53624L33.4473 8.7164V8.87082L33.5 9.05098L33.6054 9.8231L34.0271 10.8011L34.9101 12.6413L34.9233 12.5255L34.7915 11.9336L34.7124 11.2129L34.6861 11.1872L34.6597 10.6724L34.6334 10.6467V10.2606L34.607 10.2349V8.53624L34.6334 8.5105V8.17592L34.6597 8.15018V7.86707L34.6861 7.84133L34.7124 7.4038L34.8179 6.86332V6.7089L35.1078 5.3963L34.9233 5.24187C34.5806 4.83008 34.3259 4.33249 34.1589 3.74912L34.0271 3.07995L34.0008 2.28209L34.0271 2.25636V1.99898L34.1062 1.56145L34.2907 0.969495L34.5543 0.429013L34.752 0.158772L34.7915 0.248852L34.6861 0.480487L34.5279 1.12392L34.5016 1.50998L34.4752 1.53571V2.41078L34.5016 2.43652V2.66815L34.5279 2.69389L34.5543 3.00274L34.6597 3.46601C34.7669 3.85035 34.9075 4.20209 35.0814 4.52123L35.1341 4.75287L35.0683 4.79147L35.0024 4.76574C34.7704 4.39512 34.5947 3.96188 34.4752 3.46601L34.3961 3.07995L34.3698 2.64241L34.3434 2.61668V1.84456L34.3698 1.81882V1.58719L34.3961 1.56145L34.4225 1.2526L34.5543 0.712122H34.5279C34.3891 0.996948 34.2837 1.31437 34.2116 1.6644V1.79309L34.1589 1.97325V2.23062L34.1326 2.25636V2.7711L34.1589 2.79684L34.1853 3.26011L34.3961 4.05796C34.5806 4.53839 34.8223 4.96305 35.121 5.33195L35.5559 3.95501L35.7535 3.53035L35.8326 3.50461L35.9249 3.56895L35.9512 3.6719L35.7667 4.13517L35.6086 4.67566L35.5031 5.11319V5.24187L35.8458 5.55072L36.3993 6.2971L36.6365 6.78611L36.8342 7.41667C37.1522 6.74064 37.5476 6.1401 38.0203 5.61506L38.2575 5.48638L38.2443 5.52498C37.9702 6.14954 37.7242 6.80155 37.5063 7.48101L37.2427 8.43329L37.1373 9.07672L37.2427 9.41131L37.4799 10.5437V10.6724L37.6117 11.3159V11.4703L37.6644 11.6504V11.8049L37.6908 11.8306L37.8226 13.0789L38.3893 12.873C38.4736 12.8936 38.5263 12.885 38.5474 12.8472H39.0218C39.0535 12.8953 39.1237 12.9038 39.2327 12.873L39.5358 13.0016L39.7203 12.3196L39.9048 11.3673L40.142 10.5695C40.2984 10.1903 40.5224 9.87715 40.8141 9.63007C40.9898 9.47393 41.2051 9.3624 41.4599 9.29549L41.4335 9.15393V8.66493L41.4599 8.63919L41.4862 8.0215L41.5917 7.45528L41.6971 7.04348L41.9607 6.37431L41.8025 5.96252L41.4072 5.55072L41.3544 5.3963L41.3808 5.29335L41.618 4.9845L41.6444 4.72713L41.5653 4.39255V4.03222C41.5917 3.9207 41.6488 3.8392 41.7366 3.78772L41.9211 3.71051H42.0529L42.1979 3.80059L42.2242 3.8778L42.1583 3.91641C42.1302 3.83233 42.0512 3.79802 41.9211 3.81346L41.7234 3.95501L41.6707 4.10944V4.26386L41.7498 4.59844V4.9845C41.7111 5.11834 41.6409 5.22128 41.5389 5.29335L41.5126 5.44777C41.748 5.61249 41.9194 5.83984 42.0266 6.12981L42.0661 6.03973L42.0924 5.6022L42.1715 5.38343C42.2506 5.35426 42.2769 5.38429 42.2506 5.47351L42.2769 5.55072L42.1188 6.19415L42.0924 6.76037L42.0661 6.82471C41.9993 6.79898 41.973 6.81185 41.987 6.86332L41.8816 7.12069L41.6707 8.09871L41.6444 8.48477L41.618 8.5105L41.5917 9.24401L41.7498 9.21828C41.7568 9.04498 41.792 8.89913 41.8552 8.78074C41.9255 8.75672 41.9431 8.80391 41.9079 8.9223L41.8552 9.20541L41.9079 9.17967L42.0134 8.87082L41.987 8.74214L42.0924 8.36895L42.0397 8.35608V8.17592L42.1188 7.78986V7.42954L42.0924 7.4038L42.0661 6.94053L42.132 6.82471C42.1847 6.84016 42.1979 6.81013 42.1715 6.73463L42.1979 6.7089V6.16841L42.2242 6.14268V5.87244L42.2769 5.8853V6.16841L42.3033 6.19415V7.53249L42.2506 7.6097L42.2242 7.94428H42.2506L42.3824 7.30085L42.4087 6.65742L42.4351 6.63169L42.5142 5.62793L42.5669 5.37056V5.13893L42.5932 5.11319L42.6459 4.63705L42.6987 4.64992V4.88155L42.6723 4.90729V5.26761L42.6459 5.29335V5.57646L42.6196 5.6022V5.8853L42.5932 5.91104V6.19415L42.5669 6.21989L42.5405 6.65742H42.5669C42.6705 6.29539 42.855 6.01228 43.1204 5.80809V5.24187L43.1731 4.92016L43.2258 4.93303V5.70514L43.2653 5.71801L43.3181 5.69228L43.2917 5.74375C43.239 5.73517 43.2258 5.79094 43.2522 5.91104L43.2785 5.93678V6.14268C43.2522 6.19415 43.2258 6.19415 43.1994 6.14268L43.1336 5.87244C42.8542 6.09721 42.6828 6.4275 42.6196 6.86332L42.6723 6.83758L43.0545 6.38718L43.3708 6.18128V6.20702C43.1406 6.32541 42.9517 6.48413 42.8041 6.68316L42.5142 7.1979C42.4597 7.29056 42.4333 7.41067 42.4351 7.55823H42.4614C42.7285 6.9697 43.1019 6.48498 43.5816 6.10407L43.7266 5.98825L43.7002 5.75662L43.8452 5.58933L43.9638 5.55072L43.9375 5.46064L43.8452 5.4349V5.48638L43.7002 5.46064V5.56359H43.6607L43.5948 5.44777C43.6299 5.25903 43.608 5.12606 43.5289 5.04885L43.4367 5.01024L43.4103 4.95877V4.67566C43.456 4.48863 43.5482 4.34708 43.6871 4.25099L44.2537 4.04509C44.3135 3.97303 44.3311 3.84863 44.3064 3.6719C44.2432 3.6393 44.2168 3.57067 44.2274 3.46601L44.6359 3.27298L44.7809 3.15716C44.8933 3.07823 44.9373 2.93239 44.9127 2.71963L44.8336 2.53947L45.0972 2.28209L45.2817 1.02097C45.2465 1.05014 45.2114 1.03298 45.1762 0.969495L45.0576 0.82794L44.86 0.995232C44.874 1.06043 44.8608 1.09904 44.8204 1.11105C44.78 1.06472 44.7097 1.04756 44.6096 1.05957L44.3592 1.2526L44.3064 1.40703V1.85743C44.1922 1.83684 44.1132 1.85829 44.0692 1.92177C44.078 1.97325 44.0209 1.98612 43.8979 1.96038H43.8452L43.6871 1.98612L43.4103 2.20488C43.2838 2.44166 43.1213 2.64327 42.9227 2.80971L42.6064 2.93839L42.5405 3.00274L42.5142 3.26011L42.5405 3.28585V3.54322L42.3956 3.73625L42.2901 3.76198L42.2506 3.68477L42.4087 3.62043L42.4351 3.56895V3.00274L42.5537 2.86118L42.8173 2.75823L43.0149 2.59094C43.1432 2.35587 43.3058 2.15427 43.5026 1.98612L43.7398 1.85743H44.0033L44.0692 1.88317L44.1351 1.78022C44.2283 1.8111 44.259 1.78108 44.2274 1.69014L44.201 1.6644V1.4585C44.2256 1.31094 44.2827 1.19512 44.3723 1.11105L44.5305 1.0081H44.7677L44.8072 0.969495L44.9258 0.802203L45.084 0.750728L45.2026 0.82794L45.2948 0.982363C45.279 0.889709 45.2966 0.829656 45.3476 0.802203L45.4398 0.763597L45.5584 0.622042C45.6551 0.536251 45.8132 0.510514 46.0328 0.544831L46.5336 0.776466L46.9553 0.802203C47.117 0.867404 47.24 0.970353 47.3243 1.11105L47.522 1.20113L47.5484 1.2526V1.6644L47.7065 2.28209V2.50086L47.6275 2.46225L47.4957 2.05046L47.443 1.4585C47.4043 1.43791 47.3955 1.38644 47.4166 1.30408L47.3771 1.26547C47.2505 1.23459 47.1583 1.17025 47.1003 1.07244L46.929 0.879414C46.8025 0.822793 46.6355 0.805634 46.4282 0.82794L45.9274 0.647779H45.6902C45.59 0.670085 45.5154 0.71727 45.4662 0.789334L45.4266 0.982363L45.3871 0.969495L45.2553 2.19201C45.308 2.17142 45.3256 2.19287 45.308 2.25636L45.1631 2.42365L44.9917 2.5652L45.0708 2.89979C45.0357 3.10568 44.9434 3.25582 44.7941 3.35019L44.4119 3.53035C44.4699 3.61442 44.4874 3.7474 44.4646 3.92928C44.4365 4.04938 44.3794 4.13946 44.2933 4.19952L44.0297 4.22525L43.7793 4.44402C43.7143 4.5178 43.6967 4.63791 43.7266 4.80434L44.0692 5.3963L44.0429 5.47351L44.0692 5.49925V5.66654C43.9216 5.64423 43.825 5.68284 43.7793 5.78236L43.8057 5.98825L43.9638 6.24563L44.0561 6.49013L44.0692 6.42579L44.0429 6.32284L44.1351 6.25849L44.201 6.37431L44.2406 6.77324L44.2801 6.68316C44.2397 6.66085 44.2309 6.60938 44.2537 6.52874H44.2801L44.2933 6.61882C44.3073 6.57249 44.3513 6.55533 44.4251 6.56734L44.4646 6.58021C44.4769 6.4378 44.5164 6.32198 44.5832 6.23276L44.6754 6.27136L44.6491 6.55447L44.6227 6.58021V6.94053L44.7413 7.26225L44.7545 6.85045C44.8072 6.82986 44.8248 6.85131 44.8072 6.91479L44.8468 7.00488L44.8863 6.83758L44.86 6.78611L45.229 5.24187V5.13893L45.4266 4.48263L45.4398 4.54697L45.3871 4.72713L45.4398 4.74L45.453 4.66279L45.4662 4.72713L45.4398 4.79147C45.3924 4.7726 45.3748 4.78547 45.3871 4.83008L45.0181 6.42579H45.0445L45.1367 6.20702L45.1499 6.24563L45.0181 6.68316H45.0445L45.2553 6.24563L45.229 6.19415C45.619 5.70858 46.0451 5.25817 46.5073 4.84295L46.4414 4.93303C46.1058 5.41174 45.7324 5.85356 45.3212 6.25849C45.2825 6.24648 45.2694 6.25935 45.2817 6.2971L44.9917 7.04348L44.9127 7.42954L44.8336 7.55823V7.73839L44.8863 7.71265L45.0181 7.32659L45.3212 6.69603L45.3344 6.76037L45.2026 7.09496H45.229L45.5321 6.49013L45.5452 6.55447L45.2817 7.22364L45.3344 7.1979L45.5848 6.82471L45.598 6.86332V6.91479L45.4398 7.30085L45.4925 7.27512L45.822 6.79898L45.8088 6.83758L45.4662 7.51962L45.7297 7.33946L46.1778 6.52874L46.4809 6.20702L46.8763 6.0526L47.0476 5.93678L47.1926 5.66654L47.2057 5.75662C47.1688 5.92648 47.0854 6.05088 46.9553 6.12981C46.741 6.20359 46.5697 6.31941 46.4414 6.47726L45.967 7.42954L45.4793 7.95715L45.229 8.08584C45.2202 8.20251 45.1806 8.29688 45.1103 8.36895L45.0313 8.39468L44.9258 8.266L44.5568 8.18879C44.5059 8.25914 44.4092 8.28487 44.2669 8.266L44.1088 8.16305H44.0561H43.8716L43.608 8.24026C43.3637 8.34493 43.1573 8.48648 42.9886 8.66493L42.6987 9.10246L42.4351 9.77163L42.7514 9.83597C42.725 9.77077 42.7382 9.74503 42.7909 9.75876L42.87 9.73302L42.9622 9.79736L43.0281 9.91318C43.1441 9.90289 43.2188 9.93291 43.2522 10.0033L43.0281 10.0161L42.9754 9.99039C42.9227 10.0161 42.9227 10.0419 42.9754 10.0676H43.0149V10.1706L42.8041 10.2092L43.1336 10.222L43.1599 10.1963H43.3839C43.4156 10.2735 43.3848 10.2992 43.2917 10.2735L43.1336 10.325H42.5273C42.5063 10.2872 42.4535 10.2787 42.3692 10.2992L42.3297 10.2606C42.3191 10.2143 42.3674 10.2014 42.4746 10.222V10.1963L42.3033 10.1191C41.8254 11.3202 41.3685 12.5512 40.9327 13.8124L40.6955 14.6874L40.6164 15.2279L40.9723 15.7813L41.8421 15.6526L41.9079 15.5882L42.0661 15.3309V15.1893L41.6048 15.215V15.1893L41.6707 15.1507L41.5653 15.0992L41.6048 15.0349L41.9343 15.0092V14.8676L42.0661 14.4301L42.3956 13.7738L42.3824 13.8124C42.2014 14.1813 42.0608 14.5802 41.9607 15.0092C42.0415 15.0315 42.0942 15.0186 42.1188 14.9705V14.8676L42.2638 14.3915L42.2769 14.4558C42.2067 14.6154 42.1715 14.7998 42.1715 15.0092L42.2769 14.9705C42.342 14.545 42.4606 14.1718 42.6328 13.851L42.6459 13.8896C42.4966 14.2122 42.3999 14.5768 42.356 14.9834H42.4878V14.9448L42.5932 14.4558L42.725 14.0955C42.8287 13.8621 42.9693 13.6648 43.1467 13.5035L43.8979 12.1266L43.9111 12.1652L43.3576 13.2719L43.4103 13.2462C43.6563 12.9545 43.8584 12.6199 44.0165 12.2424L44.201 11.5475L44.2801 10.8783L44.2537 10.8269H44.2801L44.3328 10.9813L44.5832 11.2258L44.8863 11.4703L45.0972 11.8306L45.1499 12.0622V12.3196L45.0445 12.6799L44.7677 13.0016L44.7545 12.963C44.9619 12.7623 45.0585 12.4534 45.0445 12.0365L44.9654 11.7534L44.8863 11.6247L44.346 11.0456L44.3328 11.1872V11.2386L44.3064 11.7019L44.1219 12.2939C43.9638 12.6885 43.7442 13.0231 43.463 13.2976L43.5948 13.3491L43.5157 13.5035C43.3312 13.6579 43.1731 13.8381 43.0413 14.044C42.8796 14.3237 42.7654 14.6497 42.6987 15.022L42.7777 15.4724L43.9111 15.2408L43.9243 15.1893H44.1088L44.4119 15.1121L44.3592 14.9705L43.9902 14.4301L43.9111 14.147V13.9153L44.0033 13.6966L44.0165 13.7352L43.9638 13.8124V14.147C44.085 14.5261 44.2739 14.8393 44.5305 15.0864L45.7561 14.7389L45.6375 14.6746L45.4003 14.6488L45.3607 14.6102L45.3344 14.4815C45.4697 14.3391 45.5312 14.1246 45.5189 13.8381C45.4697 13.5516 45.3423 13.3414 45.1367 13.2075L44.9654 13.1303C44.9443 13.0789 44.9663 13.0617 45.0313 13.0789L45.3212 13.2333L45.1762 13.066L45.0708 12.9373L45.1367 12.9244L45.677 13.3491L45.7297 13.4649C45.5751 13.4409 45.4565 13.3723 45.3739 13.259L45.4925 13.4006C45.6015 13.5344 45.6805 13.6974 45.7297 13.8896V14.2756L45.677 14.4043L46.0856 14.6231H46.2173L47.4825 14.2113L48.8135 13.7094L48.7081 13.6837L49.6965 13.2848L50.105 13.1689L49.881 13.1561L49.4329 13.0274C49.2801 12.9553 49.1527 12.8567 49.0507 12.7314L49.0639 12.6928L49.4593 12.9502L49.6701 13.0274L49.9864 13.1046H50.2764C50.5153 13.0205 50.7218 12.9047 50.8957 12.7571L50.8562 12.6928L50.5399 12.7958H50.1973L49.6438 12.6671L48.6422 12.1781L48.2205 12.0236L47.6143 11.9207H47.1399L46.705 11.9979L46.784 12.2167L46.9422 12.4612L47.4561 12.3067L47.7197 12.281V12.3067L47.0344 12.5384L46.6391 12.7443L46.4941 12.8601C46.5134 12.9167 46.5002 12.9382 46.4546 12.9244L46.415 12.9116L46.5336 13.0531L46.8236 13.2075L47.4298 13.3877L47.8383 13.6579L47.7461 13.5936L47.5616 13.4907L47.0344 13.362L46.6391 13.2075L46.3623 12.9888C46.3764 12.951 46.3632 12.9382 46.3228 12.9502L46.2832 12.963L46.3096 12.8858L46.1383 12.6671L45.9406 12.4998L45.7956 12.3325L45.229 12.7057C45.2149 12.7503 45.2369 12.7632 45.2948 12.7443C45.4881 12.8215 45.6419 12.9373 45.7561 13.0917L45.8352 13.1947L45.9142 13.4649C45.8668 13.4838 45.8492 13.4709 45.8615 13.4263L45.677 13.1175L45.4793 12.9244L45.0972 12.6799L45.3212 12.4354C45.6076 12.1575 45.9678 11.9516 46.4018 11.8177L47.0344 11.6891H47.7988L48.2996 11.792L48.6686 11.9207L49.7229 12.4354L50.0919 12.5384L50.4609 12.5641L50.8299 12.4869L51.0275 12.3711C51.0152 12.3333 51.0284 12.3205 51.0671 12.3325C51.0934 12.3754 51.1198 12.3668 51.1461 12.3067L51.3043 12.2553H51.4361C51.5064 12.2982 51.5415 12.3754 51.5415 12.4869L53.7028 11.3287C54.2598 10.7865 54.8704 10.3061 55.5346 9.88744L56.2463 9.05098L58.3021 6.94053L59.251 5.91104L60.3316 4.62418L61.0037 3.65903L61.0169 3.69764L60.6743 4.57271C60.4476 5.06343 60.184 5.51812 59.8836 5.93678C59.2756 6.78439 58.5947 7.5608 57.8409 8.266L56.9579 9.05098L57.0238 9.06385L57.8409 8.75501L58.4734 8.60058L58.8688 8.57485L58.8952 8.54911H59.7122L60.5029 8.70353L61.1223 8.94804L60.951 8.9609L60.6875 8.90943H59.9494L59.9231 8.93517H59.6332L59.2642 9.01238H59.106L58.5525 9.14106L57.3928 9.55286L56.523 9.96466L55.2974 10.8269L55.3633 10.8397L55.7323 10.711L57.1292 10.4022L57.63 10.3507L57.6564 10.325H57.8936L57.9199 10.2992L58.7897 10.2735L58.8161 10.2992H59.2114L59.2378 10.325L59.7913 10.3765L60.6743 10.621L59.6332 10.6338L59.6068 10.6596H59.2378L59.2114 10.6853H58.9479L58.9215 10.711L58.368 10.7625L56.8129 11.0714L55.1656 11.496L55.2842 11.5089L55.6532 11.4059L56.9711 11.1743L57.63 11.1228L57.6564 11.0971H57.999L58.0254 11.0714H58.8424L58.8688 11.0971H59.1851L59.2114 11.1228L59.5541 11.1486L60.213 11.303C60.6224 11.4265 60.987 11.5938 61.3068 11.8049L61.2673 11.8177L60.9247 11.7148H60.7929L60.4502 11.6376H60.2657L60.2394 11.6118L58.9215 11.5861L58.8952 11.6118H58.4471L58.4207 11.6376H58.1835L58.1572 11.6633H57.9199L57.8936 11.6891L57.261 11.7405L56.9184 11.8177H56.7602L56.5757 11.8692H56.4176L56.2331 11.9207H56.0749L56.0486 11.9464L55.7059 11.9722L55.1261 12.0751H54.9152L54.8889 12.1008L54.3617 12.1266L54.3354 12.1523H53.6237L53.5974 12.1781H53.3601L53.3338 12.1523H53.1229L52.609 12.4483L52.7012 12.4612L53.571 12.281L54.309 12.2038L54.3354 12.1781H54.5462L54.5726 12.1523H54.8098L54.8362 12.1266L55.5742 12.1008L55.6005 12.0751H57.0238L57.0502 12.1008H57.3664L57.3928 12.1266H57.63L57.6564 12.1523L58.2099 12.2038L59.2246 12.4226L59.1324 12.4612H57.7882L57.7618 12.4869H57.2874L57.261 12.5126L56.5757 12.5384L56.5494 12.5641L55.9959 12.5899L55.9695 12.6156H55.7323L55.7059 12.6413L54.8625 12.7185L54.8362 12.7443L54.2563 12.7958L54.0718 12.8472L53.3733 12.9373L53.4129 12.9759L53.8609 13.0016L54.9152 13.2333L55.6005 13.4392L56.3385 13.7223L57.6564 14.4172C58.0552 14.6883 58.4286 14.9843 58.7766 15.3051L58.737 15.2923L57.2347 14.5716L56.4439 14.2628L55.047 13.851L53.8082 13.5936L52.9121 13.5164L52.6749 13.4649H52.2531L52.2268 13.4392H50.9616L50.9353 13.4649H50.6717L50.3291 13.5679H50.2236L49.6306 13.8381L50.7771 13.9025L50.8035 13.8767H51.1725L51.1989 13.851H52.7012L52.7276 13.8767H53.1229L53.1493 13.9025L53.6501 13.9282L53.6764 13.9539L54.2036 14.0054L54.3617 14.0569L54.9152 14.1341L55.9959 14.4172L56.7339 14.6746C57.8251 15.1104 58.7695 15.6895 59.5673 16.4118L59.5277 16.399L58.9742 16.0901L58.1572 15.7041L56.6021 15.1378C56.3649 15.1035 56.154 15.0435 55.9695 14.9577L54.9152 14.726H54.7834L54.6253 14.6746L53.8346 14.5716L53.8082 14.5459L52.9648 14.4687V14.4944C54.5901 15.0864 55.93 15.9571 56.9843 17.1067L56.9447 17.0939L55.3369 16.1416L54.2299 15.6011L53.0966 15.1378L52.2004 14.829L50.9616 14.4944L50.1446 14.34H49.8019L49.7756 14.3657H48.2732L48.0755 14.4301L49.143 14.4944L49.1694 14.5201H49.3539L50.25 14.6746L51.2516 14.9319L52.1741 15.2408C53.9277 15.8962 55.5135 16.7155 56.9315 17.6987L56.892 17.6858L52.0423 15.807L50.6981 15.3695L50.1446 15.2408V15.2665C51.9193 15.7984 53.3558 16.6606 54.454 17.8531C54.765 18.1928 55.0373 18.5703 55.271 18.9856L55.0865 18.8311L54.5989 18.3293C54.0191 17.8145 53.3777 17.3598 52.6749 16.9652C52.0353 16.6031 51.35 16.2857 50.619 16.0129L49.3275 15.6011L47.8251 15.2665L47.0871 15.1893L47.0608 15.1636H46.7972L46.7708 15.1378L45.9801 15.1121L45.4398 15.2794L46.8236 15.4724L47.8778 15.6783L49.2748 16.0644L50.4081 16.4762L51.1989 16.8365L52.4904 17.6086C53.0157 17.9706 53.4946 18.3782 53.9268 18.8311C54.2484 19.152 54.5295 19.5123 54.7703 19.9121L54.1772 19.3587C53.7643 18.9984 53.3162 18.6724 52.833 18.3807L52.9121 18.4837L53.3997 18.9341L53.5842 19.1657L53.4919 19.1014L52.8594 18.6638L51.9105 18.2006L50.1973 17.5829L49.1694 17.2998V17.3255C50.1516 17.7047 51.0565 18.1594 51.8841 18.6896L53.0702 19.5646L53.716 20.1952L53.9532 20.504L53.8346 20.414C53.5236 20.1429 53.1809 19.9027 52.8066 19.6933L51.9105 19.1786L50.8299 18.6381L49.6701 18.1234L48.1678 17.5314L46.6391 17.0167V17.0424L48.0624 17.7373C48.6475 18.0582 49.201 18.4099 49.7229 18.7925L50.5926 19.2043L52.0423 20.0279C52.9384 20.5941 53.7423 21.2504 54.454 21.9968L54.3617 21.9325L53.0702 21.0831L51.5942 20.2853L51.8446 20.5555C52.4227 21.1235 52.9323 21.7583 53.3733 22.4601L53.2943 22.4086C52.9955 22.0397 52.6661 21.7008 52.3059 21.392C51.4993 20.661 50.6295 19.9919 49.6965 19.3845L48.2732 18.7668L43.9243 17.0681L41.6312 16.0901L41.6048 16.1159H41.4467L41.2622 16.1673L40.6823 16.2188L40.5374 16.2574L41.5785 16.6563L42.3956 16.8365L43.6871 17.274L44.4778 17.6086L45.2421 17.9947L46.191 18.355L48.0096 19.1786C48.9023 19.6281 49.7457 20.1257 50.5399 20.6713C51.169 21.1037 51.7532 21.5799 52.2927 22.0998C52.6494 22.4464 52.9657 22.8324 53.2415 23.2579L53.1098 23.155L52.7803 22.8075C52.1952 22.2808 51.5538 21.8089 50.8562 21.392L49.3802 20.5169L48.6686 20.1566L48.774 20.2853C49.3749 20.7365 49.9328 21.2298 50.4477 21.7652L50.4345 21.8038C49.0446 20.8446 47.595 19.9438 46.0856 19.1014L46.1646 19.2043C46.7287 19.6058 47.2426 20.0562 47.7065 20.5555L48.6949 21.7523C49.5682 22.2979 50.3721 22.9113 51.1066 23.5925L51.0407 23.5539L50.3291 23.1164L48.4841 22.1126L46.1646 20.6971L46.1515 20.7357L46.6786 21.2504L47.6275 22.4343L47.4825 22.3185L46.56 21.4949L45.1894 20.414L43.7925 19.4617L42.1056 18.4579L41.025 17.8917L39.8389 17.3512L38.2575 16.7335L38.0993 16.7078L37.4404 16.4762H36.6233V16.5019H36.7288L37.4404 16.6821V16.6563L37.2427 16.5663L37.2823 16.5534L38.6001 16.9652L39.6544 17.4285C40.8141 17.9861 41.9036 18.6124 42.9227 19.3073C44.9891 20.764 46.9 22.3726 48.6554 24.133L49.8942 25.3941L49.8019 25.3298L48.6159 24.4547C47.2997 23.3549 45.9555 22.2825 44.5832 21.2376L44.57 21.2762L45.2553 22.1255L45.7825 22.9748L45.8747 23.0649C46.4897 23.5539 47.074 24.0729 47.6275 24.622L48.0492 25.0853L47.9833 25.0467C47.298 24.5148 46.5863 24.0086 45.8483 23.5282L43.3708 21.6751L43.4367 21.7652L43.9111 22.3571L44.6754 23.541L44.5173 23.4124L43.8584 22.666L42.3692 21.2118L41.025 20.0794L39.8389 19.1786L38.6528 18.3807L37.2823 17.5571L36.2016 16.9909L34.9101 16.399L34.4093 16.3732L34.383 16.3475H34.1721L34.1458 16.3218L33.3287 16.2445V16.2703L34.2512 16.5019L35.3055 16.9137L35.7799 17.1453L35.7535 17.0939L34.7651 16.489L34.8047 16.4762L36.228 17.1196L37.3877 17.7888L38.4947 18.5352C39.9162 19.5578 41.2297 20.6859 42.4351 21.9196C43.1748 22.6471 43.8865 23.4021 44.57 24.1845L46.6391 26.6939H47.5089L47.5352 26.7196L48.0096 26.7711L48.6422 26.9512C49.3222 27.2223 49.8889 27.6041 50.3422 28.0965C50.5636 28.335 50.7569 28.601 50.9221 28.8944L51.2648 29.6665L51.4229 30.3871L51.4492 31.2107L51.4229 31.2365V31.4681L51.3965 31.4938L51.3702 31.8027L51.133 32.5491C50.8817 33.1187 50.5434 33.6034 50.1182 34.0032C49.8353 34.2675 49.5146 34.4948 49.1562 34.6853L49.2221 34.7239L50.6981 34.904L51.357 35.0327H51.5151L51.5415 35.0585L53.0966 35.2901L53.8346 35.4445H53.9664L56.2858 35.9078L58.6316 36.474H58.737L61.1882 37.1174L63.7712 37.8638L65.9062 38.5587L67 38.9576L66.9341 38.9705L65.8798 38.6617L63.8767 38.1727L63.6658 38.0954H63.5604L62.1635 37.7351H62.058L61.7154 37.6322H61.61L58.8688 37.0145L56.6021 36.577L54.6516 36.2681L54.4935 36.2166H54.3354L53.6764 36.0879H53.5183L53.3338 36.0365H53.1756L53.1493 36.0107H52.9911L52.9648 35.985H52.8066L52.6221 35.9335L52.2531 35.9078L52.2268 35.882H52.0686L52.0423 35.8563H51.8841L51.1198 35.7276H50.9353L50.9089 35.7019L50.3027 35.6504L50.0655 35.5989H49.8546L49.8283 35.5732H49.6174L49.5911 35.5475H49.3802L49.143 35.496H48.9321L48.9058 35.4702H48.6949L48.6686 35.4445L48.1941 35.4188L48.1678 35.393H47.9306L47.9042 35.3673H47.667L47.6406 35.3416H47.4034L47.1135 35.2901H46.8499L46.8236 35.2644H46.5336L46.5073 35.2386H46.2173L46.191 35.2129H45.9011L45.8747 35.1871L44.8204 35.1357L44.7941 35.1099L43.4762 35.0585L43.4498 35.0327H43.0018L42.9754 35.007H42.4746L42.4483 34.9812H41.7366L41.7103 34.9555L39.628 34.9298L39.6017 34.904H37.0978L37.0714 34.9298H35.8326L35.8063 34.9555H35.0155L34.9892 34.9812L33.645 35.007L33.6186 35.0327L31.8527 35.1099L31.8263 35.1357H31.4837L31.4573 35.1614H31.1674L31.141 35.1871L29.8495 35.2644L29.8232 35.2901L29.0325 35.3416L29.0061 35.3673H28.7689L28.7425 35.393H28.5053L28.2154 35.4445H27.9518L27.9255 35.4702H27.741L27.7146 35.496H27.5301L27.082 35.5732H26.8712L26.8448 35.5989L26.0277 35.6761L26.0014 35.7019L24.5517 35.882L24.3672 35.9335L24.0246 35.9593L22.5486 36.2166H22.3904L18.8586 36.8858L17.9097 37.1174L17.5671 37.1689L17.119 37.2976H17.0136L14.9314 37.8123L11.7685 38.7131L9.50177 39.4595L8.10484 40V39.9743L9.47541 39.3308L12.0321 38.3271L13.5871 37.7866L15.7221 37.1174L18.0415 36.474L20.2819 35.9335L22.4959 35.4702H22.6277L23.8928 35.2129L25.2766 34.9941L24.8944 34.8526L24.13 34.4408C23.812 34.2194 23.5264 33.9663 23.2734 33.6815C22.9114 33.2629 22.6303 32.7653 22.43 32.1888L22.2718 31.4424L22.2455 30.8247L22.2718 30.7989V30.4386L22.2982 30.4129L22.3245 30.104L22.43 29.6922L22.5881 29.2804C22.8341 28.7142 23.1724 28.2381 23.6029 27.852C23.8541 27.617 24.1353 27.4111 24.4463 27.2343L25.2107 26.8998L25.6851 26.7711L26.1595 26.7196L26.1859 26.6939H27.0293L27.0557 26.7196L27.5301 26.7711L28.2945 27.0027C28.8497 27.2498 29.3285 27.5715 29.7309 27.9678C30.1667 28.4002 30.5005 28.9321 30.7325 29.5636L30.8906 30.1298V30.2842L30.9433 30.4901V31.3909L30.7852 32.163C30.6798 32.4804 30.548 32.7721 30.3898 33.0381C30.1421 33.4567 29.839 33.8214 29.4805 34.1319L28.9929 34.4794L29.1642 34.4922L29.1906 34.4665H29.4015L29.665 34.415L31.062 34.3121L31.0883 34.2863H31.3782L31.4046 34.2606H31.6682L31.6945 34.2349L33.1969 34.1576L33.2232 34.1319H33.5923L33.6186 34.1062H34.1194L34.1458 34.0804L35.3318 34.0547L35.3582 34.029H36.4652L36.4915 34.0032H39.7862L39.8125 34.029L41.4994 34.0547L41.5258 34.0804H42.0529L42.0793 34.1062H42.6064L42.6328 34.1319H43.1599L43.1863 34.1576H43.5289L43.5553 34.1834L44.2933 34.2091L44.1615 34.0547L43.8847 33.8102C43.5351 33.4396 43.2539 33.002 43.0413 32.4976L42.8041 31.6997V31.5453L42.7514 31.3394V30.5416L42.7777 30.5158L42.8304 30.0526L42.9359 29.6665L43.0677 29.3062L43.3049 28.8429C43.5544 28.4088 43.8663 28.0356 44.2406 27.7233C44.5973 27.4196 45.0102 27.1709 45.4793 26.977L46.191 26.7711L46.6259 26.7067L45.9801 26.1276L41.7103 21.9839L41.6971 22.0225C42.1662 22.5939 42.5704 23.2288 42.9095 23.9271L42.8304 23.8756C42.1276 22.9491 41.3501 22.0955 40.4978 21.3148C39.6895 20.577 38.8549 19.8649 37.9939 19.1786L36.7024 18.2263L35.3318 17.3512L35.3582 17.4027L36.228 17.9947L37.4404 18.9727C38.2065 19.6316 38.9401 20.3222 39.6412 21.0445L41.5653 23.052L43.7002 25.4456L44.4119 26.1662L44.346 26.1276L43.7661 25.7416L42.9754 25.0467L40.4056 22.5888L39.549 21.7266L39.5358 21.7652C40.2668 22.6643 40.8466 23.7109 41.2754 24.9051L41.2227 24.8794C40.7535 24.0335 40.2176 23.2528 39.6149 22.5373C39.0016 21.7892 38.3471 21.0814 37.6513 20.414L36.7288 19.5904L37.2559 20.1309L37.4272 20.2724C38.4183 21.295 39.3232 22.4017 40.142 23.5925L41.1436 25.2397L41.987 27.0928H41.9607L41.0382 25.5743L39.6939 23.6955C38.5448 22.2267 37.2928 20.8584 35.938 19.5904L34.0403 17.9175L32.5643 16.7593L31.5891 16.0644L31.2992 15.8842L30.9302 15.807H30.7457L30.693 15.7555L30.3898 15.7041C30.4127 15.783 30.3995 15.8345 30.3503 15.8585L30.2581 15.8713L30.4821 16.0129L31.062 16.1931L31.9581 16.6049L32.907 17.1711C33.8347 17.8008 34.6738 18.5171 35.4241 19.3201C36.4151 20.3771 37.2937 21.5438 38.0598 22.8204C38.7012 23.867 39.2283 25.0252 39.6412 26.2949H39.6149C39.2265 25.5159 38.8048 24.7696 38.3497 24.0558C37.8771 23.2991 37.3763 22.5699 36.8474 21.8681C35.9618 20.6739 34.9822 19.5715 33.9085 18.5609L32.7488 17.5571L32.0899 17.0939L32.1953 17.2226C32.74 17.6429 33.2452 18.1019 33.7109 18.5995C34.31 19.2241 34.8635 19.8932 35.3714 20.607C35.8229 21.247 36.2447 21.9162 36.6365 22.6145C37.06 23.3763 37.4378 24.1828 37.7699 25.0338C38.0282 25.6995 38.2478 26.403 38.4288 27.1443H38.4024L37.7172 25.6C37.2216 24.5825 36.6857 23.6045 36.1094 22.666C35.6226 21.8801 35.1043 21.1252 34.5543 20.4011C34.0166 19.6993 33.4411 19.0345 32.8279 18.4065L32.8147 18.4451C33.7161 19.5466 34.4893 20.7734 35.1341 22.1255L35.6349 23.2579L36.083 24.4933L36.3729 25.4971V25.6L36.5574 26.3207H36.5311L36.0039 24.9823L35.4768 23.8242L34.5543 22.0225L33.7899 20.7357C32.8657 19.2189 31.7718 17.8677 30.5085 16.6821C30.0832 16.2909 29.6264 15.9305 29.1379 15.6011L28.1627 15.0349L27.6882 14.8805V14.9062C28.9147 15.6303 29.991 16.5011 30.917 17.5185C32.0574 18.7299 33.0326 20.1025 33.8426 21.6365L34.4752 22.9748L35.0024 24.4161L35.2659 25.3941L35.4504 26.3721H35.4241L35.0814 25.3684L34.4225 23.8242L33.6845 22.3571L32.8674 20.9673C31.7534 19.1897 30.4575 17.5897 28.9797 16.1673C28.4667 15.6646 27.9219 15.1927 27.3456 14.7518C26.6427 14.5116 25.975 14.237 25.3424 13.9282L25.3688 13.9797L25.6587 14.1856L26.4231 14.5716L27.1611 15.0606C27.9132 15.6217 28.6116 16.2351 29.2565 16.9008C30.5779 18.2357 31.72 19.7457 32.6829 21.4306C33.008 21.9968 33.2804 22.6145 33.5 23.2837L33.7109 24.1073V24.2359L33.7636 24.4161L33.7899 24.9051H33.7636L33.6581 24.4161L33.4736 23.9014L32.8411 22.563C32.2243 21.4752 31.5346 20.4586 30.772 19.5132L30.7589 19.5518C31.5654 20.6773 32.2507 21.9213 32.8147 23.2837L33.1574 24.2359L33.4209 25.1882L33.5791 25.9603L33.6581 26.6552H33.6318L33.4473 25.9089L33.1046 24.9309L32.5775 23.6955C32.0521 22.587 31.4635 21.5404 30.8116 20.5555C29.2196 18.1551 27.3878 15.9889 25.3161 14.0569L24.9734 13.748L22.4432 12.5126L21.1517 11.7663L21.2175 11.8563C21.2052 11.901 21.2228 11.9138 21.2703 11.8949V11.9464H21.3362L21.6788 12.1523L22.4432 12.7185C22.9316 13.1183 23.3929 13.543 23.8269 13.9925C25.1465 15.3549 26.2447 16.9334 27.1216 18.7282L27.6751 20.0665L28.0441 21.3276L28.1758 22.0483L28.2022 22.4601L28.2286 22.4858L28.2549 23.2837L28.2154 23.348L28.0968 22.6402L27.9386 22.0225L27.4378 20.5813C27.0091 19.5501 26.5171 18.5806 25.9618 17.673C24.7459 15.6689 23.3182 13.8716 21.6788 12.281L21.6656 12.3196C22.3614 13.0128 22.994 13.7678 23.5633 14.5845C24.3189 15.6569 24.9954 16.8065 25.5928 18.0333L26.3572 19.7577L26.9107 21.3276L27.2533 22.6402L27.4378 23.6183L27.4906 24.0815H27.4642L27.3061 23.4896L26.9107 22.3314L26.4626 21.1732L25.6719 19.3716L24.6572 17.377L24.644 17.4413L25.1448 18.5995L25.5401 19.7834L25.7773 20.6842L25.9355 21.5078L25.9882 22.074L26.0146 22.0998L26.0409 23.0778H26.0146L25.9618 22.666L25.7246 21.6622L25.1711 19.9378C24.6598 18.6012 24.0799 17.3315 23.4315 16.1287C22.806 14.9894 22.1207 13.9085 21.3757 12.8858C20.7818 12.076 20.1185 11.3339 19.3857 10.6596L18.8981 10.2606L18.9376 10.2735L19.0431 10.325L18.9904 10.2478L18.5159 9.91318L18.6609 10.0805C19.3005 10.7857 19.8979 11.5321 20.4532 12.3196C21.207 13.3937 21.9011 14.5261 22.5354 15.7169C23.2242 17.0089 23.8656 18.3473 24.4595 19.7319L25.2502 21.7394L25.8037 23.3866H25.7773L23.906 19.5518L22.6408 17.0553L21.3493 14.6617L20.5191 13.259L20.5059 13.2976L20.954 14.147L21.5075 15.4081L21.9819 16.7207L22.3773 18.1105L22.6672 19.526V19.6805L22.7463 20.0665V20.2724L22.7726 20.2982V20.504L22.799 20.5298L22.8253 21.199L22.8517 21.2247V22.9491H22.8253L22.7463 22.1255L22.7199 22.0998V21.9453L22.6935 21.9196V21.7652L22.6145 21.4306L22.5354 20.8129L22.1664 19.1142L21.7183 17.5443L21.2439 16.1802L20.8749 15.2537C20.3161 13.9376 19.6836 12.6937 18.9772 11.5218L17.7384 9.59147L17.1058 8.7164L16.8818 8.49763L16.8686 8.53624L18.002 10.1319L18.819 11.496L19.6888 13.3234L20.0051 14.1727L20.3741 15.2537L20.7958 16.9266L20.9013 17.7244L20.9276 17.7502L21.0067 18.548L21.033 18.5738V18.8311L21.0594 18.8569L21.0858 20.2724L21.0462 20.414L20.7958 18.8054L20.3478 16.9008L20.2687 16.7207L19.9524 15.5882L19.3066 13.8252L19.2935 13.9153L19.6098 15.022V15.125L19.7943 15.7684L20.0578 16.9781L20.7168 19.629L21.1121 21.0188L21.5075 22.177H21.4811L21.1648 21.585L20.7431 20.6585L20.1105 18.9341L19.557 17.0295L18.5291 12.9888L18.1338 11.7019L17.712 10.518L17.5275 10.1319L16.7105 8.81935L15.8275 7.62257L15.2476 7.1593L15.2608 7.1979L16.1306 8.27887L16.7632 9.28262L17.3958 10.5952L17.9756 12.1909L18.4237 13.8381L18.7927 15.614V15.7427L18.9772 16.6949V16.8494L19.0299 17.0295L19.1353 17.9046L19.1617 17.9303V18.1105L19.188 18.1362L19.2671 18.9083L19.2935 18.9341V19.14L19.3462 19.3716V19.5775L19.3989 19.8091L19.478 20.6327H19.4516L18.9508 18.7797L17.8965 13.8896L17.343 11.8049L17.0004 10.7496L16.5787 9.64294C16.3362 9.06471 16.0594 8.51994 15.7484 8.00863L15.7352 8.04723L16.1042 8.79361L16.4732 9.74589L16.7632 10.6982L17.0795 12.088L17.1849 12.8601L17.2113 12.8858L17.2903 13.7094L17.3167 13.7352V13.9411L17.343 13.9668V14.1984L17.3694 14.2242V14.5073L17.3958 14.533L17.4221 15.3051L17.4485 15.3309V16.0258L17.4748 16.0515V17.3898L17.4485 17.4156L17.4221 18.5223L17.3958 18.548V18.8826L17.3694 18.9083V19.2172L17.343 19.2429L17.3035 19.7963L16.9477 15.0478L16.9213 15.022L16.8422 14.0955L16.8159 14.0697L16.7895 13.6837L16.7632 13.6579L16.605 12.4483L16.5523 12.2939V12.1652L16.3415 11.11L15.9988 9.77163L15.6035 8.61345L15.1159 7.51962L15.1027 7.58396L15.2608 8.0215L15.498 8.9223L15.788 10.4665L15.8934 11.3931L15.9197 11.4188V11.599L15.9461 11.6247V11.8306L15.9725 11.8563V12.088L15.9988 12.1137V12.3453L16.0252 12.3711V12.6027L16.0515 12.6285L16.0779 13.1432L16.1042 13.1689V13.4006L16.1306 13.4263L16.157 13.9411L16.1833 13.9668V14.1984L16.2097 14.2242V14.4558L16.236 14.4815V14.7132L16.2624 14.7389L16.3415 15.6655L16.3678 15.6912V15.8713L16.3942 15.8971V16.0772L16.4205 16.103L16.526 17.0295L16.7632 18.2134H16.7368L16.3151 17.1582L16.0252 16.103L15.8934 15.4853V15.3566L15.7352 14.5588V14.4043L15.7089 14.3786L15.6298 13.6065L15.6035 13.5807L15.5244 12.6542L15.498 12.6285V12.3968L15.4717 12.3711V12.1395L15.4453 12.1137L15.419 11.599L15.3926 11.5732L15.3662 11.0328L15.3399 11.007V10.7754L15.2872 10.4923V10.2349L15.2345 9.97752V9.74589L15.2081 9.72015L15.1817 9.28262L15.1554 9.25688V9.07672L15.129 9.05098V8.87082L15.1027 8.84509L14.9972 7.97002L14.7864 6.91479L14.4833 6.38718L14.4701 6.47726L14.4965 6.503L14.5228 6.91479L14.5492 6.94053V8.04723L14.5228 8.07297V8.27887L14.4965 8.3046L14.4437 8.76787L14.391 8.9223L14.8918 9.97752L15.05 10.4665L15.419 12.3453L15.6035 13.8381H15.5771L15.5244 13.3748L15.1817 11.7019L14.7073 9.95179L14.4174 9.05098L14.3779 9.01238C14.2549 9.55286 14.0747 10.0376 13.8375 10.4665L13.574 10.8783L13.1786 11.3545L12.8491 11.6118L12.8623 11.5732L13.3895 10.3893L13.8375 8.94804L14.1011 7.55823L14.1538 6.91479L14.1802 6.88906V6.60595L14.2065 6.58021V6.0912L14.2329 6.06547L14.1802 5.96252L13.943 5.6022L13.1127 4.79147L11.9266 3.8392L11.0305 3.29871L9.87077 2.75823L8.97463 2.47512L8.07848 2.3207H7.73584L7.47227 2.26922H7.18234L7.15598 2.24349H6.86605L6.83969 2.21775H6.54976L6.52341 2.19201H6.23348L6.20712 2.16628H5.91719L5.89083 2.14054H5.6009L5.57455 2.1148H5.28462L5.25826 2.08906H4.96833L4.94197 2.06333H4.65205L4.62569 2.03759H4.36212L4.33576 2.01185H4.04583L4.01947 1.98612H3.72954L3.70319 1.96038H3.41326L3.3869 1.93464H3.09697L3.07061 1.9089H2.78068L2.75433 1.88317H2.4644L2.43804 1.85743H2.14811L2.12175 1.83169H1.83183L1.80547 1.80595L0.698466 1.72874C0.461251 1.66869 0.281143 1.55287 0.158143 1.38129C0.0527144 1.2526 0 1.07244 0 0.840809L0.105429 0.480487L0.355822 0.210247C0.526265 0.0592548 0.798623 0.00778034 1.1729 0.0558232L1.19925 0.0815604H1.48918L1.51554 0.107298H1.77911L1.80547 0.133035H2.0954L2.12175 0.158772H2.41168L2.43804 0.184509H2.72797L2.75433 0.210247H3.04426L3.07061 0.235984H3.36054L3.3869 0.261721H3.67683L3.70319 0.287458H3.99312L4.01947 0.313195H4.3094L4.33576 0.338933H4.59933L4.62569 0.36467H4.91562L4.94197 0.390407H5.2319L5.25826 0.416144H5.54819L5.57455 0.441882H5.86448L5.89083 0.467619H6.18076L6.20712 0.493356H6.49705L6.52341 0.519093L7.73584 0.596305L7.76219 0.622042H7.99941L8.02577 0.647779L8.63198 0.724991C9.36296 0.886278 10.0131 1.12649 10.5824 1.44563C11.1957 1.78193 11.736 2.18944 12.2034 2.66815L12.7042 3.23437L13.284 4.10944L13.6003 4.46976C14.3717 5.31222 15.1756 6.12295 16.012 6.90193L17.5934 8.36895L19.0694 9.60433C20.1307 10.4468 21.2553 11.2275 22.4432 11.9464L22.4563 11.9078L22.2455 11.3416L22.2191 11.0842L22.2718 11.0328C22.2472 10.8457 22.256 10.6913 22.2982 10.5695L22.43 10.3636V10.2864L22.061 9.28262L21.9555 8.84509V8.7164L22.0478 8.60058L22.2059 8.57485L22.3245 8.62632L22.3377 8.67779L22.3509 8.61345L22.14 7.97002L22.0346 7.45528L22.0873 7.33946L22.3114 7.28798H22.5618L22.1928 6.55447L22.3114 6.41292C22.3887 6.34429 22.5117 6.31855 22.6804 6.33571L22.8649 6.41292L23.1416 6.61882L23.3657 6.92766L23.3788 6.83758L23.3525 6.81185V6.503L23.4315 6.19415L23.5106 6.02686C23.5475 5.99941 23.6134 5.99083 23.7083 6.00112L24.9471 7.67404L25.0393 7.39093L25.1843 7.3652L26.4758 8.80648L26.5417 8.57485L26.4626 8.53624L26.4363 8.40755L26.5417 8.36895L26.5153 8.43329L26.5681 8.45903L26.5417 8.25313L25.3556 6.0526L25.6192 6.02686L26.1859 7.13356L26.1991 7.06922L26.0409 6.76037L25.6719 5.80809L25.3029 4.62418L25.1184 3.69764V3.02847L25.1448 3.00274L25.1711 2.71963L25.2766 2.38504C25.3855 2.11394 25.548 1.89518 25.7642 1.72874L26.2122 1.54858H26.6603C27.0293 1.63437 27.3368 1.78022 27.5828 1.98612C28.1767 2.43566 28.7258 2.92896 29.2301 3.46601C30.1684 4.47147 31.0075 5.57388 31.7472 6.77324L31.7604 6.68316L31.6814 6.37431L31.6286 5.75662L31.6023 5.73088L31.5759 4.75287L31.6023 4.72713V4.34107L31.6286 4.31533V4.0837L31.655 4.05796L31.7077 3.54322C31.8131 3.01131 31.9537 2.51373 32.1294 2.05046L32.5248 1.17539L32.7884 0.712122L33.0783 0.27459L33.355 0.0043487ZM32.9992 0.802203C32.6302 1.35126 32.3403 1.97754 32.1294 2.68102L31.8659 3.78772V3.96788L31.8131 4.17378V4.43115L31.7868 4.45689V4.89442L31.7604 4.92016V5.33195L31.7868 5.35769L31.8131 6.02686L31.8395 6.0526L31.8659 6.41292L31.9713 6.9534L32.8147 8.60058H32.8411L32.5248 7.59683L32.3403 6.82471L32.2349 6.25849L32.2085 5.89817L32.1821 5.87244L32.1558 5.30622L32.1294 5.28048L32.1558 4.1223L32.1821 4.09657V3.81346L32.2085 3.78772V3.60756L32.2349 3.58182L32.2876 3.11855L32.5511 2.06333L32.7884 1.36842L32.9992 0.879414V0.802203ZM26.3045 1.83169C26.1112 1.86601 25.9618 1.94322 25.8564 2.06333L25.9355 2.08906L25.9618 2.16628L25.9355 2.24349L25.9091 2.21775V2.16628C25.9267 2.1148 25.9003 2.09764 25.8301 2.1148L25.6983 2.62955V3.24724L25.7773 3.60756L25.7246 3.71051L25.8301 4.09657V4.14804L25.6456 3.6333L25.5928 3.35019V3.11855L25.5665 3.09282V2.78397L25.6192 2.5266V2.39791L25.4611 2.78397L25.4347 3.09282L25.4083 3.11855V3.60756L25.4347 3.6333V3.86493L25.5138 4.27673C25.6543 4.87726 25.8388 5.45206 26.0673 6.00112V5.97539C26.0848 5.92391 26.1288 5.90675 26.1991 5.92391L26.3572 6.59308L26.3308 6.67029L26.5153 7.1593L26.5681 7.18504L26.5417 7.13356L26.5681 6.59308L26.6208 6.41292L26.5944 6.36144L26.6471 6.33571L26.6735 6.38718L26.6998 6.61882L26.858 7.05635L26.9634 7.57109L26.858 7.54536L26.7526 7.10782V6.97914H26.7262L26.7789 7.72552L26.6998 7.75125C26.6823 7.61399 26.6296 7.50246 26.5417 7.41667L26.2781 7.18504L26.1991 7.1593L26.7526 8.31747C26.7701 8.42042 26.7526 8.49763 26.6998 8.54911C27.1216 8.61774 27.4642 8.78074 27.7278 9.03812C28.1495 9.46707 28.5185 9.9475 28.8348 10.4794L28.8611 10.325C28.8787 10.2049 28.8611 10.1277 28.8084 10.0933L28.703 10.1191L28.4131 9.7845L27.9386 8.83222L27.9123 9.11533L27.8859 9.14106L27.7541 8.88369V8.60058L27.7014 8.42042L27.3061 7.67404V7.62257L27.5696 8.0601L27.6223 8.08584L27.596 7.80273L26.4363 5.53785V5.48638L27.2533 6.90193L27.5169 7.41667L27.5696 7.44241L27.5433 7.31372L27.5696 7.21077L27.3061 6.7475V6.69603L28.1231 8.00863H28.0968C27.9211 7.80273 27.7717 7.57109 27.6487 7.31372L27.596 7.28798L27.6751 7.69978L28.1758 8.54911C28.1583 8.58342 28.1846 8.592 28.2549 8.57485V8.72927L28.9402 9.91318L28.9666 9.86171C28.949 9.79307 28.9666 9.76734 29.0193 9.7845L28.9929 9.93892V10.0676L29.5201 10.9941C29.5025 11.0285 29.5288 11.037 29.5991 11.0199L29.6255 11.0971L29.6782 11.1228L29.6518 10.8397L29.5464 10.6853L29.5728 10.6338C29.8539 11.0971 30.1702 11.5346 30.5216 11.9464L30.6271 12.0236L30.6534 11.9979C30.7589 12.221 30.9082 12.4097 31.1015 12.5641L31.0751 12.6156L30.9961 12.5641L30.2844 11.7663L29.7836 11.0456L29.7309 11.0199L29.8627 11.4059L30.4426 12.2553L30.4953 12.2295L30.7852 12.6156L30.8116 12.5641L31.3651 13.6708L31.7341 14.2885V14.34L31.4178 13.9539L31.0751 13.259L30.6798 12.7185L30.6271 12.5899L30.5744 12.5641L30.6534 12.77V12.873L30.548 12.7958L30.3108 12.384L30.2581 12.3582L30.8379 13.4134L30.9961 13.7738V13.7995L30.4162 13.0789L30.3635 13.0531L30.9697 14.2885L31.0751 14.5974L31.6023 15.4982C31.655 15.5668 31.7429 15.5925 31.8659 15.5754L31.6286 15.1636V15.1121L31.8922 15.5496L32.024 15.6268H32.1558L31.9186 15.1636H31.9713L31.3124 14.0569L30.9961 13.4392V13.3877C31.4529 14.074 31.8746 14.8033 32.2612 15.5754L32.2876 15.6011L32.024 15.215L31.9713 15.1893L32.1821 15.6268L32.3139 15.6783L33.3155 15.807L33.3419 15.8327L33.7109 15.8585L33.7372 15.8842H33.9217L33.9481 15.91L34.7388 15.9614L34.7651 15.9872L35.8458 16.0386C35.8809 15.7813 35.8546 15.5754 35.7667 15.4209L35.7931 15.3695L35.5822 14.7775L35.2132 13.9539L35.0814 13.851L35.1078 14.0054L35.6613 15.1378L35.6876 15.1636L35.5822 15.0349C35.4768 14.8805 35.3274 14.7689 35.1341 14.7003C35.1341 14.3743 35.0375 14.1255 34.8442 13.9539C34.8618 13.9025 34.8442 13.8853 34.7915 13.9025L34.6597 14.1341C34.5543 14.2542 34.4137 14.34 34.238 14.3915V14.4172C34.361 14.4344 34.4401 14.4086 34.4752 14.34L34.5016 14.3657L34.3434 14.4944L34.3698 14.5201C34.4049 14.4687 34.4752 14.4515 34.5806 14.4687L34.5543 14.5974L34.238 14.8547L33.9481 14.9577L33.6581 15.0092H33.2628L32.8147 14.9062L32.7356 14.829L32.3403 14.5716C32.147 14.4344 32.024 14.2285 31.9713 13.9539C31.8834 13.9711 31.8307 13.9539 31.8131 13.9025C31.8483 13.6966 31.9274 13.5421 32.0504 13.4392C32.2612 13.1647 32.5248 12.9502 32.8411 12.7958L33.5 12.5899H33.9744L32.6829 9.88744L32.5775 9.93892L32.5511 10.0676L32.4721 9.93892L32.4457 9.91318L32.5775 9.7845L32.6302 9.81023L32.1294 8.72927C31.9361 8.88369 31.7165 9.0038 31.4705 9.08959L31.4178 9.1668C31.3299 9.28691 31.2069 9.3727 31.0488 9.42417L30.6007 9.52712C29.9857 9.54428 29.5113 9.42417 29.1774 9.1668C29.0544 9.09817 28.9753 8.99522 28.9402 8.85795L29.0193 8.62632L29.1511 8.52337L29.0983 8.29174C29.0808 8.17163 29.1071 8.103 29.1774 8.08584C29.5288 7.67404 30.0296 7.40809 30.6798 7.28798H31.1806L31.3914 7.33946L31.4178 7.44241H30.917L30.3635 7.54536C30.1526 7.87136 29.9242 8.17163 29.6782 8.44616L29.7046 8.49763L29.3092 8.52337L29.2301 8.67779C29.2477 8.71211 29.2389 8.72069 29.2038 8.70353C29.1686 8.66922 29.1423 8.67779 29.1247 8.72927L29.1511 8.85795L29.5728 9.11533L30.1526 9.26975H30.4426C29.9857 9.21828 29.6255 9.08101 29.3619 8.85795C29.2741 8.8408 29.2389 8.78932 29.2565 8.70353C29.3443 8.68637 29.4146 8.71211 29.4673 8.78074L29.6782 8.67779L29.81 8.54911L29.7573 8.49763L29.7836 8.39468C29.9945 8.13731 30.2668 7.95715 30.6007 7.8542L30.8116 7.57109L30.917 7.51962L30.7852 7.77699V7.80273L31.1279 7.67404L31.1542 7.75125H31.4969L31.6023 7.80273C31.655 7.78557 31.6638 7.81131 31.6286 7.87994C31.5232 7.91426 31.3914 7.92284 31.2333 7.90568L30.7589 8.11158C30.5831 8.28316 30.4426 8.48048 30.3371 8.70353C30.3196 8.77216 30.2581 8.7979 30.1526 8.78074V8.67779L30.0472 8.75501H29.9681L29.81 8.93517L30.2844 9.03812H30.7325L31.2596 8.93517C31.3124 8.90085 31.3036 8.87511 31.2333 8.85795V8.78074L31.3387 8.60058C31.4266 8.48048 31.5496 8.38611 31.7077 8.31747L31.8131 8.16305C31.7429 7.8542 31.6199 7.61399 31.4441 7.44241L31.4969 7.3652L31.6023 7.44241C31.6199 7.47672 31.6374 7.47672 31.655 7.44241V7.31372L31.3124 6.7475C31.3299 6.69603 31.3211 6.67887 31.286 6.69603C31.04 6.49013 30.8291 6.25849 30.6534 6.00112L30.1263 5.20327L29.9154 4.74L29.441 4.14804L29.0456 4.30247L28.4658 4.45689L28.0441 4.5341H27.8596L27.8332 4.55984H27.5696L27.5433 4.58558H27.2006L27.1743 4.55984L26.6735 4.5341C26.6208 4.51694 26.5944 4.48263 26.5944 4.43115C26.6296 4.34536 26.7262 4.31962 26.8843 4.35394L27.1743 3.68477V3.6333C26.9458 3.78772 26.8053 4.0022 26.7526 4.27673L26.6735 4.25099C26.6911 3.9593 26.7701 3.74483 26.9107 3.60756C27.104 3.35019 27.3851 3.18719 27.7541 3.11855H28.1495L28.2022 3.14429L28.2549 3.24724L28.2022 3.27298C28.0265 3.25582 27.8947 3.2644 27.8068 3.29871V3.47887L27.7014 3.8392L27.8332 3.81346L27.9913 3.47887C28.0089 3.4274 28.0528 3.41024 28.1231 3.4274C28.1056 3.49603 28.1231 3.54751 28.1758 3.58182L28.1231 3.53035L28.0177 3.81346L28.334 3.8392L28.2549 3.71051L28.2286 3.6333L28.4658 3.91641V3.96788H28.2286L28.2022 3.94214L27.9386 3.96788L27.8332 4.17378H27.7541V4.01936H27.7014L27.596 4.19952C27.5784 4.25099 27.5345 4.26815 27.4642 4.25099L27.3851 4.14804L27.2006 4.27673L27.1479 4.35394H27.5433L27.5696 4.3282H27.8068L27.8332 4.30247L28.1495 4.27673L28.6239 4.17378L29.2301 3.96788V3.94214L28.7293 3.40166C28.2549 2.90408 27.7366 2.45796 27.1743 2.06333L26.6998 1.85743L26.3045 1.83169ZM35.4768 5.38343L35.4504 5.51212L35.5559 5.61506L35.9249 6.41292L36.1621 7.18504L36.2148 7.54536L36.2675 7.57109L36.3466 7.08209L36.5311 7.13356L36.5574 7.1593C36.3466 6.4215 35.9864 5.82954 35.4768 5.38343ZM35.4241 5.69228L35.3186 6.20702L35.2923 6.69603L35.2659 6.72177V7.10782L35.2396 7.13356V8.39468L35.2659 8.42042V8.83222L35.2923 8.85795V9.14106L35.3186 9.1668V9.39844L35.3977 9.83597V10.0161L35.5559 10.8912L35.8458 12.0494V12.1523L36.1621 13.259L37.1109 16.0386C37.1285 16.073 37.1812 16.0815 37.2691 16.0644L37.0582 15.2923L36.8737 14.4429L36.7946 13.7995L36.7683 13.7738V13.5936L36.7419 13.5679L36.7156 13.0789L36.6892 13.0531V12.6928L36.6629 12.6671V10.9941L36.6892 10.9684V10.6338L36.7156 10.6081L36.7419 10.1191L36.7683 10.0933V9.91318L36.7946 9.88744V9.70728L36.8737 9.3727V9.24401L37.0582 8.39468L37.2691 7.64831L37.5063 6.9534L37.8226 6.25849V6.20702C37.4711 6.63597 37.1724 7.12498 36.9264 7.67404L36.9001 7.75125V8.42042L36.8474 8.54911L36.7946 8.52337L36.7683 8.13731L36.5311 8.70353L36.3466 9.34696L36.1621 10.2735L36.1357 10.6853L36.1094 10.711V11.0199L36.083 11.0456L36.1094 12.2295L36.1357 12.2553L36.2148 12.9759L36.3993 13.7223V13.7738L36.2411 13.362L36.1094 12.77L36.0566 12.281L36.0303 12.2553V12.0236L36.0039 11.9979V11.5861L35.9776 11.5604V10.8655L36.0039 10.8397L36.0303 10.1963L36.0566 10.1706L36.1094 9.65581L36.2939 8.85795L36.1884 8.83222C36.206 8.71211 36.1972 8.66064 36.1621 8.67779L36.083 8.60058L36.1621 8.21452L36.1357 7.69978L35.9512 6.90193C35.8282 6.43866 35.6525 6.03544 35.4241 5.69228ZM43.7793 6.02686L43.1731 6.64455L42.8304 7.10782L42.5932 7.54536L42.4878 7.67404L42.4351 7.64831L42.4087 7.98289L42.3824 8.03436L42.5405 8.0601C42.5757 8.09442 42.5844 8.16305 42.5669 8.266L42.6987 8.31747C42.7338 8.14589 42.8129 8.00863 42.9359 7.90568C42.9183 7.8542 42.9359 7.83705 42.9886 7.8542L43.5421 7.21077V7.08209C43.2434 7.37378 42.9798 7.70836 42.7514 8.08584L42.6196 8.13731L42.725 7.90568L43.2522 7.28798L43.463 7.10782L43.5684 6.9534V6.77324C43.2346 7.08209 42.9534 7.43383 42.725 7.82847L42.5932 7.95715H42.5142V7.87994L42.7514 7.54536L43.6475 6.56734L43.6212 6.51587C43.6036 6.46439 43.6299 6.44723 43.7002 6.46439L43.7529 6.56734C43.7354 6.61882 43.7529 6.63597 43.8057 6.61882L43.8584 6.72177V7.00488L43.8847 7.03061C43.9199 7.25367 43.9023 7.43383 43.832 7.57109L43.8584 7.72552L43.9638 7.41667L43.9902 7.13356L44.0165 7.10782L43.9902 6.56734L43.9111 6.30997L43.7793 6.02686ZM45.0181 6.43866L44.9917 6.51587H45.0181V6.43866ZM23.6951 6.49013L23.6424 6.5416V6.87619L23.7478 7.18504V7.31372L23.8006 7.41667L23.906 7.3652H24.0114L24.4858 8.00863L26.3572 10.8912L27.8332 13.3105L28.6766 14.8033L28.9138 14.8547L28.9402 14.8805L27.7014 12.6671L25.9091 9.7845L25.8564 9.73302V9.70728L24.9339 8.31747L24.8812 8.266L24.8021 8.21452L24.7758 8.08584L23.6951 6.49013ZM22.509 6.59308L22.8253 7.26225L23.0362 7.3652C23.0538 7.45099 23.0362 7.50246 22.9835 7.51962L26.3572 13.8767L26.3836 13.9025L26.1463 13.7995L26.0673 13.8252L27.1479 14.2628H27.1743L23.6424 7.90568V7.8542H23.537L23.5633 7.75125L23.0889 6.92766C22.9659 6.72177 22.7726 6.61024 22.509 6.59308ZM45.0181 6.69603L44.9917 6.77324H45.0181V6.69603ZM35.0287 7.21077L34.976 7.31372L34.9233 7.98289L34.8969 8.00863L34.8706 8.88369L34.8442 8.90943V9.73302L34.8969 9.88744L34.976 9.83597V9.55286L35.0024 9.47565L35.1078 9.44991L35.0814 8.98664L35.0551 8.9609V8.62632L35.0287 8.60058V8.00863L35.0024 7.98289V7.39093L35.0287 7.3652V7.21077ZM22.6672 7.57109L22.43 7.62257L22.6935 8.57485L23.1943 9.7845L23.9587 11.2515L25.1975 13.4134L25.2766 13.4649L26.0146 13.7995H26.0673L26.0146 13.7738L22.7463 7.62257L22.6672 7.57109ZM23.8796 7.59683L23.8006 7.62257L23.9323 7.95715L27.5433 14.4172L28.1758 14.6231C26.8756 12.2038 25.4611 9.87887 23.9323 7.64831C23.9499 7.59683 23.9323 7.57967 23.8796 7.59683ZM30.1526 7.62257C29.9066 7.72552 29.7046 7.8542 29.5464 8.00863L29.2828 8.29174V8.44616V8.4719L29.5464 8.44616L29.6255 8.29174L30.179 7.64831L30.1526 7.62257ZM25.1711 7.75125L25.1184 7.90568V7.95715C25.6983 8.76359 26.2518 9.60433 26.7789 10.4794L26.8316 10.5051L26.7262 9.99039L26.858 9.88744L26.9634 9.91318L26.9898 9.96466L27.1216 10.4022L27.1479 10.6853L27.1743 10.711L27.1479 10.9169L27.0952 10.9684L27.5169 11.6633H27.5433C27.5608 11.5775 27.5521 11.526 27.5169 11.5089V10.5566L26.6998 9.47565L26.6735 9.83597L26.5417 9.7845C26.4363 9.63007 26.3923 9.4156 26.4099 9.14106L25.2766 7.82847L25.1711 7.75125ZM16.4996 8.16305L16.6314 8.31747L16.605 8.21452L16.4996 8.16305ZM27.8596 8.29174L27.8332 8.42042L27.9123 8.75501L28.2022 9.01238L27.8596 8.29174ZM22.3773 8.67779L22.3509 8.75501H22.3773V8.67779ZM22.4036 8.75501L22.3773 8.83222H22.4036V8.75501ZM22.43 8.83222L22.4036 8.90943H22.43V8.83222ZM26.7789 8.83222L26.6998 8.9609V9.01238C26.9986 9.33838 27.2621 9.70728 27.4906 10.1191L27.5696 10.1706L27.1216 8.98664L26.7789 8.83222ZM22.4563 8.90943L22.43 9.01238L22.7463 9.96466L22.9044 10.3507L23.0625 10.6081L23.247 10.7882L23.0625 10.6853L23.2998 11.2773L24.0378 12.8215C24.1783 12.9588 24.3716 13.0617 24.6176 13.1303L24.644 13.1561L23.4579 11.0971L22.8517 9.91318L22.4563 8.90943ZM42.3033 9.06385L42.1715 9.24401L42.3033 9.26975L42.3297 9.34696L42.3033 9.39844L42.1188 9.34696L42.0397 9.3727L41.987 9.34696C41.8289 9.3298 41.7059 9.34696 41.618 9.39844C41.5477 9.38128 41.5302 9.40702 41.5653 9.47565C41.495 9.49281 41.4687 9.47565 41.4862 9.42417C41.3105 9.47565 41.1612 9.56144 41.0382 9.68155C40.8449 9.83597 40.6867 10.0161 40.5637 10.222L40.4056 10.5309L40.2211 11.1486L40.3529 11.1743H40.6164L40.6428 11.2L41.0382 11.2258L41.1436 11.2515L41.1963 11.3287C41.2139 11.4145 41.1963 11.466 41.1436 11.4832L40.6428 11.4317L40.1684 11.3287L40.142 11.5861L40.1947 11.5604L40.2738 11.6118H40.4056L40.5637 11.5089L40.6955 11.5346L40.7482 11.6891L40.6692 11.7405L40.4847 11.7663L40.3002 11.8949L40.1684 11.8692L40.1157 11.792L39.9839 12.384L39.8784 12.7185V12.8215L39.3513 14.4944L39.1668 15.1893L39.0614 15.7555V15.9357C39.0262 15.9529 39.035 15.97 39.0877 15.9872L39.1404 15.9614H39.4304L39.4567 15.9357L40.1947 15.8842L40.2474 15.8585L40.3002 15.215L40.511 14.2628L40.88 13.1561L41.4335 11.792C41.4511 11.7405 41.4335 11.7234 41.3808 11.7405L41.4072 11.4059L41.5389 10.9427L41.9079 9.83597L41.9607 9.75876V9.70728H41.8289L41.5389 10.7625L41.2754 11.3545C41.2929 11.3888 41.2754 11.3974 41.2227 11.3802L41.3017 10.9941L41.3544 10.8912V10.814L41.249 11.0199L41.1963 11.0456C41.2139 10.8569 41.2578 10.711 41.3281 10.6081V10.5309L41.2227 10.7368C41.1875 10.8054 41.1524 10.814 41.1172 10.7625L41.1699 10.6338C41.1875 10.5652 41.1699 10.5395 41.1172 10.5566C41.1524 10.3507 41.2314 10.1791 41.3544 10.0419C41.372 9.97324 41.3544 9.9475 41.3017 9.96466L41.2754 9.91318L41.3017 9.81023C41.3544 9.69013 41.4511 9.62149 41.5917 9.60433L41.6707 9.50139L41.7762 9.5786L41.987 9.60433L42.0397 9.47565C42.0924 9.45849 42.11 9.49281 42.0924 9.5786V9.63007C42.0749 9.68155 42.0924 9.6987 42.1452 9.68155L41.9607 10.1448L41.618 11.2L41.6444 11.2773L42.4087 9.29549C42.4263 9.22686 42.4175 9.20112 42.3824 9.21828C42.3121 9.20112 42.2857 9.14964 42.3033 9.06385ZM27.3324 9.14106L27.7805 10.1706L27.8068 10.4022L27.7278 10.4279L28.2813 11.2L28.3867 11.2515L28.4131 11.3802L28.9929 12.2038L29.81 13.5164L30.4689 14.7003L30.5216 14.726L29.9681 13.4134L29.5201 12.77L28.7557 11.792L28.4921 11.3802V11.2773C28.5097 11.2258 28.5536 11.2086 28.6239 11.2258C28.8699 11.4488 29.0896 11.7062 29.2828 11.9979L29.3619 12.0494L28.9929 11.3802L28.9402 11.3287L28.8084 11.2L28.7293 10.9684L28.5185 10.6081L27.8596 9.68155L27.7541 9.60433L28.3867 10.8912L28.4921 10.9427L28.5185 10.9684C28.5361 10.9169 28.5185 10.8998 28.4658 10.9169C28.4306 10.8483 28.4658 10.8226 28.5712 10.8397L28.6503 10.9684L28.5976 11.0971C28.4746 11.1143 28.3955 11.0971 28.3603 11.0456L28.2286 10.9169L27.596 9.39844L27.3324 9.14106ZM33.1046 9.24401L33.0783 9.32123H33.1046V9.24401ZM17.8702 9.39844V9.47565L18.1074 9.75876L18.2128 9.83597L18.002 9.52712L17.8702 9.39844ZM41.7498 9.73302L41.618 10.0161L41.6444 10.0676L41.7762 9.75876L41.7498 9.73302ZM41.6444 9.7845L41.618 9.86171H41.6444V9.7845ZM18.2392 9.83597L18.2128 9.88744L18.2919 9.93892L18.2392 9.83597ZM18.3446 9.96466L18.3183 10.0161L18.371 10.0419L18.3446 9.96466ZM41.618 10.0676L41.5917 10.1448H41.618V10.0676ZM42.6459 10.222V10.2478H42.6987L42.6459 10.222ZM28.9929 10.6081L28.9666 10.7368L29.0193 10.7625C29.0368 10.6767 29.0281 10.6252 28.9929 10.6081ZM22.5618 10.6338L22.509 10.711V10.9684L22.6408 11.3802L23.168 12.384L23.4052 12.4869L22.5618 10.6338ZM29.0456 10.7625V10.8655L29.0983 10.8912L29.0456 10.7625ZM27.7278 10.814L27.7014 11.0456L27.7278 11.0714V11.7663L27.7014 11.8435L27.6487 11.8692C28.2813 12.8987 28.8875 13.9539 29.4673 15.0349L29.5728 15.0606C29.5376 14.9748 29.5288 14.8461 29.5464 14.6746L29.5201 14.6488L29.4673 13.4907L29.1247 12.9244H29.0983L29.1247 13.4134L29.1511 13.4392V13.7223L29.1247 13.7738L29.0193 13.7995L28.9666 13.6966C29.0017 13.5936 28.9929 13.5336 28.9402 13.5164L28.8875 12.5384L28.5448 12.0236L28.4921 11.9979C28.5448 12.0494 28.5536 12.1523 28.5185 12.3067L28.5448 12.3325V12.6928L28.4921 12.7443L28.3867 12.6156L28.3603 12.1266L28.334 12.1008V11.7148L27.7278 10.814ZM34.9496 10.8655L34.9233 11.0971L34.9496 11.1228L34.976 11.5089L35.0024 11.5346L35.1078 12.3067H35.1341C35.1166 12.1695 35.1341 12.1094 35.1869 12.1266L35.2396 12.3067H35.2659L35.0287 11.4832L34.9496 10.8655ZM20.1633 10.9684L20.2687 11.1486L20.3478 11.2258L20.3214 11.2515L20.5323 11.4059V11.3545L20.9013 11.6118H20.9276L20.4005 11.1228L20.1633 10.9684ZM37.2954 10.9684C37.2603 11.037 37.2603 11.0885 37.2954 11.1228V11.5604H37.3745L37.3218 11.0714L37.2954 10.9684ZM55.0865 11.5089V11.5346H55.1656L55.0865 11.5089ZM54.9811 11.5346V11.5604H55.0602L54.9811 11.5346ZM20.7695 11.6118L20.7431 11.6633L20.9013 11.792L20.7695 11.6118ZM20.9276 11.792L20.9013 11.8435L22.0083 13.2075L23.0625 14.726C23.537 15.4467 23.9851 16.2016 24.4068 16.9909L24.4595 17.0167C23.5633 14.992 22.386 13.2504 20.9276 11.792ZM54.5067 11.8692V11.8949H54.6385L54.5067 11.8692ZM54.2695 11.8949L54.0323 11.9464L53.3997 11.9979L53.3733 12.0494L54.4803 11.9207L54.2695 11.8949ZM46.5468 12.0236L46.2042 12.1523L46.3096 12.2038C46.4502 12.3067 46.538 12.4612 46.5732 12.6671L46.9158 12.5126L46.7313 12.281L46.6522 12.0751C46.6347 12.0236 46.5995 12.0065 46.5468 12.0236ZM46.1251 12.1781L45.8352 12.3325L46.2569 12.6413L46.2832 12.5899C46.2832 12.6928 46.3272 12.7614 46.415 12.7958L46.5468 12.7185L46.3623 12.384L46.1251 12.1781ZM35.2923 12.3067L35.2659 12.384H35.2923V12.3067ZM35.345 12.4354L35.3186 12.5126H35.345V12.4354ZM51.2911 12.4354L51.3702 12.5384C51.4053 12.4354 51.379 12.4011 51.2911 12.4354ZM35.3714 12.5126L35.345 12.5899L35.5031 12.9759L35.7667 13.8252L36.5047 15.6526H36.5311L35.5295 12.8472L35.3714 12.5126ZM51.1593 12.5384L51.0275 12.6413C50.9748 12.6242 50.9572 12.6413 50.9748 12.6928L51.1857 12.5899C51.2033 12.5384 51.1945 12.5212 51.1593 12.5384ZM33.8954 12.6671L33.6054 12.7185L33.1046 12.8987L32.6039 13.4907L32.3403 14.0826L32.2349 14.0569C32.2876 13.7652 32.393 13.5336 32.5511 13.362L32.8147 13.0789L32.6039 13.2075C32.3579 13.3963 32.1646 13.6365 32.024 13.9282L32.2349 14.2113L32.6566 14.5201L32.8411 14.5974L33.1046 14.6488L33.4209 14.6231L33.7109 14.4944C33.5 14.4772 33.3506 14.4086 33.2628 14.2885C33.2101 14.2714 33.1925 14.2199 33.2101 14.1341L33.3946 14.0569H33.6054L34.0799 13.9539L34.6597 13.748L34.3434 13.362L34.0271 12.7185C34.0447 12.6671 34.0008 12.6499 33.8954 12.6671ZM38.6924 13.0016L38.5079 13.0274L38.2443 13.5679L38.0862 14.1083L38.0071 14.0826C38.0774 13.688 38.2179 13.362 38.4288 13.1046V13.0531L38.1652 13.1303L37.8489 13.3105C37.9016 13.362 37.9104 13.4563 37.8753 13.5936L37.9016 13.6193V13.8767L37.928 13.9025L37.9544 14.5459L37.9807 14.5716L38.0334 16.0129C38.051 16.0472 38.0949 16.0558 38.1652 16.0386L38.2179 15.9872L38.4024 15.4209L38.6924 14.7518L39.035 14.1341L39.0877 14.1083V14.1856L38.7978 14.829L38.4024 15.9614L38.4288 16.0129H38.7187L38.7451 15.9872L38.8242 15.3952L39.035 14.5459L39.5094 13.0531L39.4304 13.0789L39.1932 13.0274C38.7363 13.6108 38.4024 14.3057 38.1916 15.1121L38.1125 15.1378V15.0092C38.1652 14.8719 38.2004 14.726 38.2179 14.5716L38.3761 14.1083C38.5518 13.6966 38.7714 13.3448 39.035 13.0531V13.0016H38.6924ZM37.5854 13.1818L37.3218 13.3362L37.3745 13.6193L37.3218 13.851C37.3042 13.8853 37.2427 13.8939 37.1373 13.8767L37.0582 13.7995H37.0319L37.0582 14.1341L37.2164 14.9319L37.5326 16.0129L37.559 16.0386H37.7699L37.7172 14.6231L37.6908 14.5974L37.6644 13.9282L37.6381 13.9025L37.6117 13.362L37.5854 13.1818ZM19.2935 13.748L19.2671 13.8252H19.2935V13.748ZM29.6782 13.851L29.7046 14.1341L29.7573 14.8033L29.7836 14.829V15.0864L29.81 15.1378L30.2317 15.2408L30.2581 15.215C30.2405 15.0949 30.2581 15.0177 30.3108 14.9834L29.6782 13.851ZM47.153 14.7518L46.9685 14.829H47.8383L47.8647 14.8547H48.181L48.2073 14.8805H48.3918L48.0492 14.8033L47.153 14.7518ZM48.4445 14.8805V14.9062H48.5763L48.4445 14.8805ZM49.8942 15.1636V15.1893H49.9469L49.8942 15.1636ZM49.9996 15.1893V15.215H50.0523L49.9996 15.1893ZM50.0787 15.215V15.2408H50.1314L50.0787 15.215ZM30.4426 15.2408C30.4074 15.2923 30.4162 15.3094 30.4689 15.2923L30.4426 15.2408ZM40.6164 15.3695C40.5637 15.4896 40.5462 15.644 40.5637 15.8327C40.6164 15.7984 40.7043 15.7898 40.8273 15.807L40.6164 15.3695ZM44.7809 15.4467L44.57 15.5239L43.463 15.7555L43.3839 15.807L43.5684 15.8327L44.201 15.8585L44.2274 15.8842H44.491L44.5173 15.91L45.5189 15.9872L45.5452 16.0129L46.1515 16.0644L46.6786 16.1673L46.9949 16.1931L48.8135 16.5791L49.6833 16.8622H49.736L49.1825 16.6306L47.7065 16.1673L47.522 16.1416L47.153 16.0129L46.2832 15.807L45.8879 15.6783L45.0445 15.4982L44.939 15.4467H44.7809ZM29.5201 15.4724V15.4982L30.2053 15.8327L30.179 15.807L30.2053 15.6783L30.179 15.6268L29.5201 15.4724ZM42.8568 15.8842V15.91L43.1204 15.9614H43.2258L43.0413 15.8842H42.8568ZM31.7868 15.9872L31.8131 16.0386L31.9449 16.1159L32.8147 16.4247L33.7899 16.888L35.0814 17.6601H35.1078L34.1853 16.9137L33.1046 16.1931L32.762 16.1673L31.7868 15.9872ZM41.8816 16.0644L41.9343 16.1159L43.2522 16.4504L45.229 17.0681H45.2817C44.6842 16.7936 44.0517 16.562 43.3839 16.3732L42.2506 16.0901L41.8816 16.0644ZM40.3002 16.2703L40.2738 16.296L39.5358 16.3732L40.1157 16.4762H40.5901L40.6164 16.5019H40.7482L40.3002 16.2703ZM35.5031 16.4247L35.5559 16.4762C35.9249 16.5448 36.2587 16.6563 36.5574 16.8108H36.6101L36.3466 16.6306L36.3202 16.5791L37.5063 17.0681L38.3497 17.5057C39.0702 17.9003 39.773 18.3293 40.4583 18.7925C41.987 19.8563 43.463 20.9888 44.8863 22.1898L44.9654 22.267L44.57 21.8295C43.2346 20.474 41.7234 19.2987 40.0366 18.3035C39.1053 17.7545 38.1301 17.2654 37.1109 16.8365L36.083 16.4504L35.5031 16.4247ZM38.2707 16.4247L38.1652 16.4762L39.0087 16.6563H39.0614L38.6133 16.4247H38.2707ZM38.6924 16.4247V16.4504L38.7714 16.4762L39.9575 16.8108L40.9591 17.1968L42.7777 18.0461C44.5173 18.9727 46.1778 19.9936 47.7592 21.1089H47.7856C46.5556 20.0108 45.185 19.0671 43.6739 18.2778C42.8304 17.8488 41.9519 17.4628 41.0382 17.1196L39.4831 16.6049L38.8242 16.4247H38.6924ZM37.559 16.7078V16.7335L38.7187 17.2998L40.7219 18.4837L42.8041 19.8992L44.4119 21.1089L44.491 21.1861L44.0429 20.6713C43.1467 19.7276 42.1276 18.9126 40.9854 18.2263C39.9663 17.5915 38.8242 17.0853 37.559 16.7078ZM49.7624 16.8622V16.888H49.8151L49.7624 16.8622ZM31.9976 17.0167L32.0504 17.0939H32.0767L31.9976 17.0167ZM45.308 17.0681V17.0939H45.3607L45.308 17.0681ZM35.2659 17.2998L35.2923 17.3512H35.3186L35.2659 17.2998ZM30.7325 19.436L30.7061 19.4874L30.7589 19.5132L30.7325 19.436ZM26.4363 27.5947L26.4099 27.6204H26.1463L25.8564 27.6719L25.2766 27.852C24.9778 27.9721 24.7143 28.1266 24.4858 28.3153C24.152 28.5727 23.8708 28.8901 23.6424 29.2676L23.3261 29.9625L23.1943 30.6059V31.2751L23.2998 31.8413C23.4579 32.3389 23.6951 32.7678 24.0114 33.1282C24.3453 33.5056 24.7758 33.8059 25.3029 34.029L25.9091 34.2091L26.1991 34.2349L26.2254 34.2606H26.5944L26.6208 34.2863L26.6471 34.2606H26.9898L27.0161 34.2349L27.3324 34.2091L27.8596 34.0547C28.2813 33.8831 28.6503 33.6515 28.9666 33.3598C29.2301 33.1024 29.4586 32.8107 29.6518 32.4847L29.9154 31.8156L29.9945 31.4295V31.1979L30.0208 31.1721L29.9945 30.4772L29.8891 29.9882C29.7485 29.5249 29.5376 29.1389 29.2565 28.83C28.9402 28.4354 28.5448 28.1266 28.0704 27.9035L27.2533 27.6461L26.8316 27.6204L26.8053 27.5947H26.4363ZM46.9422 27.5947L46.9158 27.6204L46.4677 27.6461L45.8352 27.8263C45.431 27.9979 45.0884 28.2124 44.8072 28.4697C44.4382 28.7786 44.1483 29.1732 43.9375 29.6536L43.7793 30.1169L43.7002 30.5287V30.8118L43.6739 30.8375L43.7266 31.5325L43.9111 32.1759L44.2274 32.7678L44.6754 33.3083L45.2553 33.7459L45.8088 34.029L46.1778 34.1576L46.7313 34.2606H47.4957L48.1282 34.1319C48.5675 33.9775 48.9541 33.7716 49.288 33.5142C49.6745 33.2054 49.982 32.8193 50.2105 32.356L50.4477 31.6611L50.474 31.378L50.5004 31.3523V30.9662L50.5267 30.9405L50.5004 30.9148V30.5287L50.4477 30.2456L50.2632 29.6536C50.105 29.2762 49.8942 28.9587 49.6306 28.7014C49.3143 28.341 48.919 28.0579 48.4445 27.852L47.7592 27.6461L47.3112 27.6204L47.2848 27.5947H46.9422Z" fill="#447143"/>
<path d="M46.4286 1.60004L46.4417 1.99897L46.3099 2.53945L45.9409 3.49173L45.8619 3.80058L45.8355 4.1609L45.8619 4.18664V4.45688C45.8092 4.47918 45.7916 4.45774 45.8092 4.39254H45.7828L45.4665 5.60219L45.5983 5.49924L46.2309 4.67564L46.4022 4.50835L46.4154 4.5727L46.0727 5.03597L45.5192 5.60219V5.64079C45.4542 5.61505 45.4279 5.62792 45.4402 5.6794L45.4138 5.74374L45.3611 5.73087V5.52497L45.6247 4.67564L45.7828 4.34106V3.87779L45.8355 3.62042L46.3099 2.28208L46.4286 1.60004Z" fill="#447143"/>
<path d="M26.1342 1.96039L26.1478 2.02663H26.1206L26.1342 1.96039Z" fill="#447143"/>
<path d="M26.108 2.06321L26.1212 2.28198L26.0948 2.30771V2.95114L26.1212 2.97688V3.23425L26.1475 3.25999V3.46589L26.2003 3.76187C26.1528 3.78074 26.1352 3.76787 26.1475 3.72326L26.108 3.65892L26.0948 3.77474L26.4902 4.70128L27.0964 5.65355L27.5181 6.39993L27.6499 6.73452L27.584 6.74738L27.4786 6.6187L27.4654 6.6573C27.7307 7.04165 27.9679 7.45344 28.177 7.89269H28.1507L27.07 6.03961L27.1228 6.06535L27.2677 6.30985L27.2809 6.27125L26.7669 5.35757L26.7538 5.39618L26.8592 5.73076L26.8065 5.70503L26.5429 5.13881L26.0685 3.87768L26.0158 3.64605L26.0421 3.59457C25.884 3.39726 25.8225 3.10557 25.8576 2.71951L25.963 2.29484C26.0158 2.27425 26.0333 2.2957 26.0158 2.35919L25.9367 2.61656V3.05409L26.0289 3.45302L26.0421 3.25999L26.0158 3.23425V2.46214L26.108 2.06321ZM27.36 6.4128L27.3336 6.46428L27.3863 6.49001L27.36 6.4128ZM27.439 6.54149L27.4127 6.59296L27.4654 6.6187L27.439 6.54149Z" fill="#447143"/>
<path d="M46.139 2.4751L46.1258 2.5137C46.0274 2.80368 45.9 3.06534 45.7436 3.29869L45.7305 3.26008L46.139 2.4751Z" fill="#447143"/>
<path d="M47.4825 2.8097L47.6539 3.20863L47.7857 3.82632C47.7628 3.90868 47.7716 3.96015 47.812 3.98074V4.62417L47.7593 4.83007L47.6539 5.01023L47.3376 5.37055L47.298 5.56358C47.2506 5.54299 47.2374 5.48723 47.2585 5.39629L47.5221 5.03597L47.6012 4.85581L47.6802 4.54696V4.13517L47.5484 3.38879L47.4957 3.2601L47.4825 2.8097Z" fill="#447143"/>
<path d="M47.245 3.11855L47.2845 3.20881C47.1932 3.32745 47.079 3.40912 46.9419 3.45383C46.9929 3.33003 47.0763 3.22687 47.1923 3.14434L47.245 3.11855Z" fill="#447143"/>
<path d="M29.5067 4.55981C29.7773 5.14491 30.1068 5.67252 30.4951 6.14265H30.4688C30.04 5.69997 29.7193 5.17236 29.5067 4.55981Z" fill="#447143"/>
<path d="M26.7128 4.63705L26.9368 4.93303L27.6221 6.34858L27.5826 6.36145L27.3849 6.06547L26.805 4.95877L26.6996 4.7014L26.7128 4.63705Z" fill="#447143"/>
<path d="M29.2695 4.79147C29.7123 5.28563 30.1209 5.81324 30.4951 6.37431L30.3897 6.2971L29.2695 4.79147Z" fill="#447143"/>
<path d="M42.9225 5.02295C43.0069 5.01094 43.0552 5.03238 43.0675 5.08729C43.0938 5.16279 43.0807 5.19281 43.0279 5.17737L43.0148 5.11303C43.0288 5.07528 43.0156 5.06241 42.9752 5.07442L42.883 5.21598L42.8039 5.67925L42.7117 5.87228L42.6721 5.85941V5.67925L42.8039 5.1645L42.9225 5.02295Z" fill="#447143"/>
<path d="M44.3207 5.46044L44.3339 5.60229L44.3074 5.62808L44.2942 5.89889L44.281 5.60229L44.3207 5.46044Z" fill="#447143"/>
<path d="M44.2676 5.94964L44.2808 6.16886H44.2544L44.2676 5.94964Z" fill="#447143"/>
<path d="M44.2401 6.20693L44.2534 6.2972H44.2269L44.2401 6.20693Z" fill="#447143"/>
<path d="M27.608 6.46441L28.3329 7.63545L28.2538 7.58398L27.608 6.46441Z" fill="#447143"/>
<path d="M27.9514 6.49021L28.4127 7.35241L28.36 7.32667L27.9514 6.49021Z" fill="#447143"/>
<path d="M27.2141 6.56746L27.2812 6.65773L27.2275 6.63194L27.2141 6.56746Z" fill="#447143"/>
<path d="M45.0054 8.42044C45.3112 8.42216 45.5264 8.51224 45.6512 8.69068L45.7566 8.8451L45.8357 9.12821V9.95181L45.8093 9.97754L45.783 10.5695L45.7566 10.5952L45.6512 11.3931L45.4667 12.1137L45.3481 12.3068L45.2558 12.2682V12.1137L45.3086 11.985L45.5458 10.7497L45.5721 10.3121L45.5985 10.2864V9.92607L45.6248 9.90033V9.38559L45.6512 9.35985L45.5721 8.92232L45.3744 8.70355L45.1372 8.6006L44.9659 8.57486C44.9448 8.49594 44.958 8.44446 45.0054 8.42044Z" fill="#447143"/>
<path d="M44.7413 8.90964L44.8599 8.92251L44.3328 9.1284L44.6096 9.14127L44.6359 9.11554H45.1103V9.14127L44.6623 9.21848H44.4514L44.4251 9.24422H44.1351C44.1088 9.20133 44.0824 9.20991 44.056 9.26996L43.687 9.45012H43.5948C43.5825 9.36948 43.6132 9.318 43.687 9.2957C43.9998 9.12926 44.3513 9.00058 44.7413 8.90964Z" fill="#447143"/>
<path d="M45.0052 10.222L45.3874 10.3639L45.2951 10.3768L45.1238 10.351L45.0975 10.48L44.9788 10.5057L44.8866 10.4413L44.8998 10.2994L44.9393 10.3768L45.0184 10.3639L44.9657 10.2607L45.0052 10.222Z" fill="#447143"/>
<path d="M29.8497 10.6339L30.4955 11.5476L31.1544 12.3197L31.0885 12.2811L30.8381 12.0624L30.311 11.4189L29.9683 10.9042L29.8365 10.6725L29.8497 10.6339Z" fill="#447143"/>
<path d="M30.9034 10.6851C31.044 10.9768 31.2329 11.2213 31.4701 11.4186L31.3515 11.3285L31.2066 11.2127C31.0554 11.0651 30.9544 10.8893 30.9034 10.6851Z" fill="#447143"/>
<path d="M30.1663 10.7112L31.0756 11.805L31.3128 12.1911L31.181 12.0881L30.3903 11.0586L30.1663 10.7112Z" fill="#447143"/>
<path d="M30.5869 10.7884L31.2854 11.6249L31.3908 11.805L31.2854 11.7278L30.5869 10.7884Z" fill="#447143"/>
<path d="M44.0564 11.1228L44.0695 11.3159L44.0432 11.3416L44.0168 11.6762L43.9773 11.7405L43.9641 11.6247L44.0564 11.1228Z" fill="#447143"/>
<path d="M43.6873 11.7662L43.7005 11.8048L42.6594 13.8252H42.6067C42.568 13.8389 42.5548 13.8261 42.5671 13.7866L42.6989 13.4778L43.1733 12.6156L42.7121 12.5898L42.5276 12.5384H42.2113L42.1849 12.5641L41.7632 12.5898L41.6973 12.5641C41.678 12.5178 41.6912 12.5006 41.7369 12.5126L41.9214 12.4611L42.4881 12.4354C42.5109 12.3839 42.4889 12.3668 42.4222 12.3839C42.3659 12.3633 42.344 12.3204 42.3563 12.2552L41.7764 12.1523L41.8159 12.0493L42.4749 12.178L42.4485 12.1266L42.0268 11.9464L41.7501 11.9207L41.7632 11.8434H42.1322C42.394 11.9052 42.6005 12.021 42.7516 12.1909C42.7393 12.2304 42.7525 12.2432 42.7912 12.2295L42.8439 12.281L43.0547 12.3067L43.1602 12.3839L43.3315 12.4097L43.6873 11.7662Z" fill="#447143"/>
<path d="M43.9508 11.8435L43.9904 11.8564L42.9624 13.658L42.7648 13.9282L42.7516 13.8896L43.1733 13.1175L43.9508 11.8435Z" fill="#447143"/>
<path d="M48.4312 12.3069L48.5234 12.3201L48.4312 12.3333V12.3069Z" fill="#447143"/>
<path d="M33.3029 12.3325L33.3951 12.3454C32.7713 12.5513 32.2705 12.8773 31.8927 13.3234L31.7741 13.4649L31.6819 13.4263L31.7082 13.2977L31.9059 13.0789L32.4331 12.6671L32.9339 12.4355L33.3029 12.3325Z" fill="#447143"/>
<path d="M48.5619 12.3325L48.8123 12.397L48.7464 12.4099L48.5619 12.3583V12.3325Z" fill="#447143"/>
<path d="M46.2702 12.4869L46.2837 12.5531H46.2566L46.2702 12.4869Z" fill="#447143"/>
<path d="M22.4957 12.5898C23.5219 13.3035 24.4576 14.1057 25.3028 14.9962C26.8086 16.5627 28.1001 18.3386 29.1773 20.3238C29.78 21.4168 30.3071 22.5835 30.7587 23.8241L31.2859 25.5227L31.6021 27.0155H31.5758L31.2859 26.1147L30.9169 25.1366L29.8626 22.7431C29.2809 21.5437 28.6484 20.3941 27.9648 19.2943C27.2339 18.1207 26.4432 17.0054 25.5927 15.9485L24.064 14.1726L22.4957 12.5898Z" fill="#447143"/>
<path d="M45.4526 12.5898C45.6863 12.679 45.8752 12.812 46.0193 12.9887L46.1511 13.1688L46.1775 13.2718H46.1511L45.8216 12.8986L45.4395 12.6412L45.4526 12.5898Z" fill="#447143"/>
<path d="M31.2067 12.8989C31.2647 12.8766 31.2822 12.9066 31.2594 12.9889C31.349 13.3647 31.4984 13.6821 31.7075 13.9412L31.523 13.7868L31.3385 13.478C31.2594 13.3081 31.2155 13.1151 31.2067 12.8989Z" fill="#447143"/>
<path d="M23.1017 12.9503C23.8045 13.2763 24.4459 13.6623 25.0258 14.1084C25.6706 14.6026 26.2725 15.1388 26.8312 15.717C28.4759 17.4397 29.8465 19.43 30.943 21.688L31.5492 23.0521L31.8391 23.85L32.05 24.5706L32.2872 25.8317L32.3135 26.4237L32.3399 26.4494V26.8355H32.3135L32.2608 26.398L32.0236 25.4199L31.5492 24.0559L31.1275 23.1036C30.7057 22.2371 30.2577 21.3964 29.7832 20.5813C29.1138 19.442 28.3845 18.3611 27.5956 17.3385C26.7891 16.2901 25.9061 15.3164 24.9467 14.4173L23.9451 13.5679L23.128 13.0017L23.1017 12.9503Z" fill="#447143"/>
<path d="M33.7772 12.9759H34.0408L34.054 13.0274C33.5725 13.144 33.1859 13.3628 32.8942 13.6837C32.7625 13.8432 32.6658 14.0277 32.6043 14.237L33.1446 14.2113L33.1842 14.2885L32.8283 14.3657H32.4857L32.4462 14.3014L32.5516 14.0182C32.5305 13.8861 32.5481 13.7918 32.6043 13.7351L32.9601 13.3619L33.3555 13.1046L33.7772 12.9759Z" fill="#447143"/>
<path d="M40.8136 13.0275L40.9058 13.0404L40.6423 13.2467L40.7477 13.3241C40.7565 13.3929 40.7345 13.4316 40.6818 13.4402L40.4709 13.4917H40.181L40.1151 13.4015L40.181 13.3112L40.8136 13.0275Z" fill="#447143"/>
<path d="M49.2218 13.2076H49.5117L49.5249 13.2591H49.2481L49.0109 13.3107L48.4838 13.5428L48.4969 13.5042C48.4846 13.4663 48.4978 13.4534 48.5365 13.4655L48.8264 13.3107L49.2218 13.2076Z" fill="#447143"/>
<path d="M31.0349 13.6968L32.0497 15.537L31.9706 15.4855L31.0349 13.6968Z" fill="#447143"/>
<path d="M47.9044 13.7479L47.9715 13.8382H47.9447L47.9044 13.7479Z" fill="#447143"/>
<path d="M15.6165 13.9024L15.6297 13.9926H15.6033L15.6165 13.9024Z" fill="#447143"/>
<path d="M15.6433 14.1084L15.6569 14.1747H15.6298L15.6433 14.1084Z" fill="#447143"/>
<path d="M41.7104 14.237L41.7236 14.2757L41.684 14.3402L41.6708 14.3015L41.7104 14.237Z" fill="#447143"/>
<path d="M41.7629 14.3399L41.6443 14.4815C41.5934 14.5947 41.5714 14.7363 41.5784 14.9061C41.5345 14.8478 41.5213 14.7577 41.5389 14.6359L41.6575 14.3657H41.7102L41.7629 14.3399Z" fill="#447143"/>
<path d="M40.0239 15.0349L40.0634 15.0994L39.9843 15.2283C40.081 15.2197 40.1425 15.2455 40.1688 15.3057L40.103 15.396L39.9185 15.4218C39.8183 15.4011 39.7436 15.3539 39.6944 15.2799C39.6768 15.2026 39.69 15.1553 39.734 15.1381L39.8921 15.1639L39.958 15.0607L40.0239 15.0349Z" fill="#447143"/>
<path d="M15.8272 15.7813L15.8404 15.8716H15.814L15.8272 15.7813Z" fill="#447143"/>
<path d="M15.8542 16.0131L16.0519 17.7761L16.0783 17.8018L16.1574 18.4967L16.2628 18.9857V19.2946L16.2364 19.3203V19.5005L16.1705 19.8222L15.8674 19.3975V18.9085L15.8938 18.8828V16.7723L15.8674 16.7466L15.8542 16.0131Z" fill="#447143"/>
</svg>
