<svg width="469" height="428" viewBox="0 0 469 428" fill="none" xmlns="http://www.w3.org/2000/svg">
<g clip-path="url(#clip0_1825_3712)">
<g opacity="0.5">
<path d="M70.1087 388.465C161.158 440.848 308.71 440.848 399.738 388.465C490.765 336.082 490.786 251.185 399.738 198.802C308.689 146.419 161.136 146.431 70.1087 198.802C-20.9187 251.173 -20.908 336.094 70.1087 388.465Z" fill="#ABBFAB"/>
</g>
<path d="M43.1047 304.959H46.9395C48.6971 298.495 49.8492 291.85 50.3779 285.127C51.2134 272.68 45.7398 253.627 35.7137 247.244C25.6876 240.861 20.2568 248.754 23.6203 255.502C26.9837 262.251 38.3273 281.446 38.4773 297.963L43.1047 304.959Z" fill="#447143"/>
<path d="M42.1835 304.959H43.2546C44.3012 296.808 44.3012 288.535 43.2546 280.384C41.5194 264.233 36.6991 256.729 32.2217 251.515C32.1237 251.401 31.9885 251.334 31.8458 251.329C31.7032 251.325 31.5648 251.383 31.4611 251.491C31.3575 251.599 31.2969 251.748 31.2929 251.905C31.2889 252.062 31.3417 252.215 31.4397 252.329C35.7994 257.39 40.491 264.705 42.1513 280.514C43.2125 288.62 43.2233 296.85 42.1835 304.959Z" fill="white"/>
<path d="M43.4153 304.959C41.4444 294.719 32.4895 282.543 24.038 280.443C14.2369 278.084 9.4702 283.782 10.8734 288.702C12.2766 293.622 20.0211 295.91 27.5407 299.768C30.0727 301.059 32.3872 302.815 34.3854 304.959H43.4153Z" fill="#447143"/>
<path d="M39.8484 304.959H40.9945C36.8491 293.48 27.4229 285.292 19.7105 284.537C19.6407 284.529 19.5701 284.536 19.5029 284.559C19.4358 284.581 19.3734 284.618 19.3194 284.668C19.2655 284.717 19.2211 284.778 19.1889 284.847C19.1568 284.916 19.1374 284.991 19.1321 285.068C19.1232 285.145 19.1288 285.223 19.1486 285.298C19.1683 285.373 19.2019 285.442 19.2471 285.502C19.2924 285.562 19.3483 285.611 19.4114 285.646C19.4746 285.681 19.5436 285.701 19.6141 285.705C26.898 286.425 35.7994 294.117 39.8484 304.959Z" fill="white"/>
<path d="M389.197 197.02L397.22 201.657L397.895 196.123C393.921 183.783 397.188 169.791 401.483 163.962C405.779 158.134 404.954 153.852 403.401 151.94C401.847 150.029 395.956 148.578 390.129 156.081C384.302 163.585 382.963 172.693 383.938 181.883C384.559 187.629 387.301 193.528 389.197 197.02Z" fill="#447143"/>
<path opacity="0.2" d="M389.197 197.02L397.22 201.657L397.895 196.123C393.921 183.783 397.188 169.791 401.483 163.962C405.779 158.134 404.954 153.852 403.401 151.94C401.847 150.029 395.956 148.578 390.129 156.081C384.302 163.585 382.963 172.693 383.938 181.883C384.559 187.629 387.301 193.528 389.197 197.02Z" fill="black"/>
<path d="M392.507 198.931L394.092 199.852C394.077 199.819 394.059 199.787 394.039 199.757C391.768 196.784 388.833 182.226 390.065 173.696C391.586 163.16 396.492 156.282 400.691 153.368C400.742 153.333 400.787 153.287 400.822 153.233C400.857 153.179 400.881 153.117 400.894 153.052C400.907 152.987 400.908 152.92 400.897 152.855C400.886 152.789 400.863 152.727 400.83 152.672C400.762 152.559 400.657 152.48 400.537 152.451C400.417 152.423 400.291 152.447 400.187 152.518C395.903 155.55 390.718 162.665 389.144 173.542C388.008 181.482 390.279 194.059 392.507 198.931Z" fill="white"/>
<path d="M397.381 175.961C399.727 182.296 399.716 185.399 395.892 186.048C392.443 186.614 388.255 191.227 392.143 198.719L414.894 211.862C414.952 210.461 415.266 209.088 415.818 207.825C416.371 206.561 417.149 205.434 418.108 204.512C421.846 200.394 425.295 197.291 424.76 192.714C424.224 188.136 420.614 183.724 420.015 179.736C419.415 175.748 421.257 173.471 425.188 169C429.119 164.529 432.686 157.591 427.438 154.43C422.189 151.268 416.18 156.683 413.673 160.329C411.167 163.974 408.875 165.579 403.936 165.272C398.998 164.965 395.035 169.625 397.381 175.961Z" fill="#447143"/>
<path d="M403.818 205.467C403.711 186.024 416.362 163.255 423.399 158.653C423.503 158.58 423.578 158.466 423.608 158.335C423.637 158.203 423.62 158.064 423.56 157.945C423.496 157.832 423.394 157.75 423.276 157.717C423.159 157.684 423.034 157.703 422.928 157.769C415.794 162.488 403.037 185.269 402.897 204.96L403.818 205.467Z" fill="white"/>
<path d="M407.204 185.258C407.107 185.282 407.006 185.27 406.916 185.222C406.827 185.175 406.754 185.096 406.711 184.998C404.667 180.799 402.947 176.418 401.569 171.902C401.551 171.839 401.544 171.772 401.549 171.706C401.555 171.639 401.572 171.575 401.599 171.515C401.627 171.456 401.665 171.404 401.712 171.361C401.758 171.318 401.811 171.285 401.869 171.265C401.927 171.245 401.988 171.238 402.048 171.243C402.108 171.249 402.167 171.268 402.22 171.299C402.274 171.329 402.322 171.371 402.361 171.422C402.4 171.473 402.429 171.532 402.448 171.596C403.813 176.049 405.511 180.37 407.525 184.514C407.582 184.635 407.594 184.776 407.558 184.906C407.522 185.036 407.441 185.145 407.332 185.21L407.204 185.258Z" fill="white"/>
<path d="M404.161 197.174C404.074 197.191 403.983 197.182 403.9 197.147C403.817 197.111 403.744 197.051 403.69 196.973C403.62 196.86 403.592 196.721 403.614 196.586C403.637 196.452 403.706 196.332 403.808 196.253C408.421 192.696 414.017 191.027 419.629 191.534C419.751 191.551 419.862 191.621 419.937 191.729C420.013 191.836 420.046 191.972 420.031 192.106C420.015 192.241 419.952 192.363 419.854 192.446C419.757 192.529 419.633 192.566 419.511 192.549C414.138 192.098 408.786 193.684 404.344 197.044C404.291 197.1 404.229 197.144 404.161 197.174Z" fill="white"/>
<path d="M269.731 78.404L243.626 61.8043L217.533 78.404L243.626 95.0036L269.731 78.404Z" fill="#F5F5F5"/>
<path d="M243.626 128.215L269.731 111.615V78.4041L243.626 95.0037V128.215Z" fill="#EBEBEB"/>
<path d="M248.661 117.195C248.523 117.198 248.386 117.162 248.264 117.089C248.098 116.955 247.965 116.776 247.879 116.57C247.793 116.363 247.756 116.136 247.772 115.91V112.37V112.111H247.932L250.439 110.494V114.423C250.435 114.929 250.322 115.427 250.107 115.874C249.893 116.322 249.584 116.706 249.207 116.995C249.045 117.115 248.856 117.185 248.661 117.195ZM248.179 112.63V115.886C248.161 116.037 248.178 116.191 248.229 116.334C248.279 116.476 248.361 116.602 248.468 116.7C248.555 116.743 248.65 116.759 248.745 116.746C248.839 116.734 248.928 116.693 249.004 116.629C249.324 116.383 249.588 116.057 249.774 115.678C249.96 115.299 250.063 114.877 250.075 114.447V114.163H249.143L248.961 112.783L248.179 112.63ZM249.464 113.715H250.043V111.297L248.543 112.252L249.282 112.406L249.464 113.715Z" fill="white"/>
<path d="M249.111 120.003C249.057 120.003 249.005 119.98 248.967 119.938C248.928 119.896 248.907 119.839 248.907 119.779V116.83C248.905 116.8 248.91 116.77 248.919 116.742C248.929 116.714 248.944 116.689 248.963 116.668C248.982 116.646 249.005 116.63 249.031 116.619C249.056 116.609 249.083 116.604 249.111 116.606C249.165 116.606 249.216 116.629 249.254 116.671C249.293 116.713 249.314 116.77 249.314 116.83V119.732C249.319 119.765 249.317 119.799 249.309 119.831C249.301 119.863 249.287 119.892 249.267 119.918C249.248 119.944 249.224 119.964 249.197 119.979C249.17 119.994 249.141 120.002 249.111 120.003Z" fill="white"/>
<path d="M247.943 120.747C247.907 120.746 247.872 120.735 247.842 120.714C247.812 120.694 247.788 120.664 247.772 120.629C247.757 120.605 247.747 120.577 247.743 120.548C247.738 120.52 247.74 120.49 247.747 120.462C247.754 120.434 247.767 120.408 247.784 120.386C247.801 120.364 247.823 120.346 247.847 120.334L250.171 118.847C250.194 118.832 250.22 118.823 250.246 118.819C250.273 118.815 250.3 118.817 250.326 118.825C250.352 118.833 250.376 118.846 250.397 118.864C250.419 118.882 250.436 118.904 250.45 118.93C250.474 118.982 250.48 119.042 250.466 119.099C250.452 119.156 250.42 119.205 250.375 119.237L248.04 120.711L247.943 120.747Z" fill="white"/>
<path d="M256.255 115.65C256.182 115.675 256.104 115.675 256.03 115.65C255.952 115.592 255.889 115.513 255.848 115.419C255.806 115.326 255.788 115.223 255.795 115.119V114.518C255.793 114.489 255.797 114.46 255.806 114.433C255.815 114.405 255.829 114.381 255.847 114.36C255.865 114.339 255.887 114.322 255.911 114.311C255.935 114.299 255.961 114.293 255.987 114.293C256.015 114.292 256.042 114.296 256.067 114.307C256.093 114.318 256.116 114.334 256.135 114.355C256.154 114.376 256.169 114.402 256.179 114.43C256.188 114.458 256.192 114.488 256.191 114.518V115.013C256.191 115.107 256.191 115.155 256.191 115.155C256.191 115.155 256.255 115.155 256.319 115.155C256.444 115.03 256.543 114.876 256.607 114.705C256.672 114.534 256.702 114.349 256.694 114.164V110.294C256.694 110.265 256.7 110.236 256.71 110.21C256.72 110.183 256.736 110.159 256.755 110.139C256.774 110.119 256.796 110.104 256.821 110.094C256.845 110.084 256.872 110.08 256.898 110.082C256.949 110.082 256.998 110.104 257.034 110.144C257.07 110.184 257.091 110.238 257.091 110.294V114.234C257.099 114.497 257.052 114.758 256.953 114.998C256.855 115.237 256.708 115.448 256.523 115.615C256.437 115.645 256.346 115.657 256.255 115.65Z" fill="white"/>
<path d="M254.134 112.217V111.839C254.184 110.857 254.443 109.901 254.889 109.048C255.336 108.196 255.958 107.471 256.705 106.931C256.973 106.684 257.303 106.532 257.651 106.498C257.999 106.464 258.348 106.549 258.651 106.741C258.954 106.933 259.196 107.223 259.344 107.571C259.492 107.92 259.54 108.31 259.479 108.689V108.819L254.134 112.217ZM257.905 106.979C257.551 106.991 257.206 107.109 256.909 107.321C256.273 107.783 255.733 108.389 255.327 109.099C254.92 109.809 254.656 110.607 254.552 111.438L259.072 108.571C259.09 108.293 259.041 108.014 258.933 107.762C258.824 107.51 258.658 107.293 258.451 107.132C258.285 107.028 258.096 106.975 257.905 106.979Z" fill="white"/>
<path d="M263.421 111.12C263.369 111.12 263.319 111.098 263.281 111.058C263.243 111.019 263.221 110.965 263.218 110.907V103.38C263.218 103.321 263.239 103.264 263.277 103.222C263.316 103.18 263.367 103.156 263.421 103.156C263.475 103.156 263.527 103.18 263.565 103.222C263.603 103.264 263.625 103.321 263.625 103.38V110.907C263.622 110.965 263.599 111.019 263.562 111.058C263.524 111.098 263.473 111.12 263.421 111.12Z" fill="white"/>
<path d="M262.875 105.091H262.8C262.775 105.079 262.753 105.062 262.734 105.041C262.716 105.02 262.701 104.995 262.691 104.968C262.681 104.94 262.676 104.911 262.676 104.882C262.677 104.852 262.682 104.823 262.693 104.796L263.411 102.979L264.203 103.994C264.22 104.015 264.233 104.04 264.241 104.068C264.249 104.095 264.252 104.123 264.25 104.152C264.248 104.18 264.241 104.208 264.229 104.234C264.218 104.259 264.201 104.282 264.182 104.3C264.162 104.319 264.139 104.333 264.115 104.342C264.09 104.351 264.064 104.354 264.038 104.352C264.012 104.35 263.987 104.342 263.964 104.329C263.941 104.316 263.92 104.298 263.903 104.277L263.518 103.805L263.057 104.985C263.039 105.019 263.012 105.048 262.98 105.067C262.948 105.086 262.911 105.094 262.875 105.091Z" fill="white"/>
<path d="M265.317 109.963C265.265 109.96 265.216 109.935 265.18 109.894C265.144 109.852 265.124 109.797 265.124 109.739V102.212C265.117 102.179 265.117 102.145 265.124 102.112C265.131 102.079 265.144 102.048 265.163 102.022C265.182 101.995 265.206 101.974 265.234 101.959C265.262 101.945 265.292 101.937 265.322 101.937C265.353 101.937 265.383 101.945 265.411 101.959C265.439 101.974 265.463 101.995 265.482 102.022C265.501 102.048 265.514 102.079 265.521 102.112C265.528 102.145 265.528 102.179 265.521 102.212V109.739C265.521 109.799 265.499 109.856 265.461 109.898C265.423 109.94 265.371 109.963 265.317 109.963Z" fill="white"/>
<path d="M264.728 103.923H264.653C264.629 103.911 264.606 103.894 264.587 103.873C264.569 103.852 264.554 103.827 264.544 103.8C264.534 103.772 264.529 103.743 264.529 103.714C264.53 103.684 264.535 103.655 264.546 103.628L265.264 101.811L266.056 102.826C266.092 102.867 266.112 102.922 266.112 102.979C266.112 103.036 266.092 103.091 266.056 103.132C266.017 103.172 265.965 103.194 265.912 103.194C265.858 103.194 265.807 103.172 265.767 103.132L265.392 102.649L264.932 103.828C264.91 103.864 264.879 103.892 264.843 103.909C264.806 103.925 264.767 103.93 264.728 103.923Z" fill="white"/>
<path d="M243.626 128.215L217.522 111.615L217.533 78.4041L243.626 95.0037V128.215Z" fill="#E0E0E0"/>
<path d="M231.993 87.6063L258.076 70.9949L255.131 69.119L229.037 85.7305L231.993 87.6063Z" fill="white"/>
<path d="M221.485 97.4458L230.837 103.345C231.374 103.735 231.822 104.258 232.144 104.873C232.466 105.487 232.652 106.176 232.69 106.884V113.231C232.69 114.541 231.854 115.072 230.837 114.411L221.485 108.512C220.947 108.123 220.499 107.6 220.177 106.985C219.855 106.37 219.669 105.681 219.632 104.973V98.6256C219.632 97.316 220.468 96.7969 221.485 97.4458Z" fill="#447143"/>
<path d="M220.768 99.0267L221.121 99.2627V106.306L220.768 106.082V99.0267Z" fill="#447143"/>
<path d="M222.214 99.947L222.824 100.348V107.392L222.214 107.002V99.947Z" fill="#447143"/>
<path d="M223.66 100.867L224.013 101.091V108.147L223.66 107.922V100.867Z" fill="#447143"/>
<path d="M224.742 101.552L225.459 102.012V109.067L224.742 108.595V101.552Z" fill="#447143"/>
<path d="M226.541 102.708L226.905 102.932V109.987L226.541 109.751V102.708Z" fill="#447143"/>
<path d="M227.591 103.357L228.341 103.852V110.895L227.58 110.4L227.591 103.357Z" fill="#447143"/>
<path d="M229.433 104.548L229.787 104.772V111.816L229.433 111.591V104.548Z" fill="#447143"/>
<path d="M230.258 105.055L230.44 105.173V112.217L230.258 112.111V105.055Z" fill="#447143"/>
<path d="M228.78 104.159L228.951 104.277V111.32L228.78 111.214V104.159Z" fill="#447143"/>
<path d="M225.866 102.283L226.038 102.389V109.444L225.866 109.326V102.283Z" fill="#447143"/>
<path d="M224.27 101.268L224.452 101.386V108.441L224.27 108.323V101.268Z" fill="#447143"/>
<path d="M223.124 100.572L223.306 100.69V107.745L223.124 107.627V100.572Z" fill="#447143"/>
<path d="M221.571 99.5341L221.753 99.652V106.707L221.571 106.589V99.5341Z" fill="#447143"/>
<path d="M230.879 105.457L231.233 105.681V112.736L230.879 112.512V105.457Z" fill="#447143"/>
<path d="M234.928 72.8707L204.465 53.5104L174.011 72.8707L204.465 92.2429L234.928 72.8707Z" fill="#F5F5F5"/>
<path d="M191.407 83.9372L221.871 64.5768L218.915 62.7009L188.461 82.0613L191.407 83.9372Z" fill="white"/>
<path d="M204.465 153.108L234.928 133.748V72.8707L204.465 92.2429V153.108Z" fill="#EBEBEB"/>
<path d="M209.499 142.148C209.36 142.151 209.222 142.11 209.103 142.03C208.934 141.898 208.799 141.72 208.713 141.513C208.626 141.306 208.591 141.077 208.61 140.85V137.311V137.051H208.781L211.277 135.435V139.364C211.272 139.869 211.158 140.366 210.943 140.814C210.729 141.261 210.421 141.645 210.045 141.936C209.885 142.06 209.696 142.134 209.499 142.148ZM209.017 137.582V140.839C208.999 140.99 209.016 141.144 209.067 141.286C209.118 141.429 209.2 141.555 209.306 141.653C209.393 141.695 209.489 141.711 209.583 141.699C209.677 141.686 209.767 141.646 209.842 141.582C210.163 141.335 210.427 141.009 210.613 140.63C210.799 140.251 210.902 139.83 210.913 139.399V139.116H209.981L209.799 137.736L209.017 137.582ZM210.303 138.668H210.935V136.249L209.435 137.217L210.174 137.358L210.303 138.668Z" fill="white"/>
<path d="M209.949 144.909C209.895 144.909 209.843 144.885 209.805 144.843C209.767 144.801 209.745 144.744 209.745 144.685V141.723C209.745 141.695 209.751 141.666 209.761 141.639C209.771 141.613 209.786 141.589 209.806 141.569C209.825 141.549 209.847 141.534 209.872 141.524C209.896 141.514 209.923 141.509 209.949 141.511C210.001 141.511 210.051 141.533 210.089 141.572C210.127 141.612 210.15 141.666 210.152 141.723V144.685C210.15 144.743 210.127 144.799 210.09 144.84C210.052 144.881 210.002 144.906 209.949 144.909Z" fill="white"/>
<path d="M208.792 145.687C208.758 145.688 208.723 145.679 208.693 145.66C208.663 145.642 208.638 145.614 208.621 145.581C208.596 145.529 208.591 145.469 208.604 145.412C208.618 145.355 208.651 145.306 208.696 145.275L211.02 143.8C211.043 143.785 211.069 143.775 211.096 143.772C211.122 143.768 211.149 143.77 211.175 143.777C211.201 143.785 211.225 143.798 211.246 143.816C211.268 143.834 211.285 143.857 211.299 143.882C211.312 143.907 211.32 143.934 211.324 143.963C211.327 143.991 211.325 144.02 211.318 144.047C211.311 144.075 211.299 144.101 211.283 144.123C211.267 144.145 211.247 144.164 211.224 144.177L208.889 145.664C208.86 145.683 208.826 145.691 208.792 145.687Z" fill="white"/>
<path d="M217.094 140.555C217.016 140.556 216.938 140.535 216.869 140.496C216.791 140.439 216.728 140.359 216.686 140.266C216.645 140.173 216.627 140.069 216.633 139.966V139.352C216.633 139.323 216.638 139.295 216.649 139.268C216.659 139.241 216.674 139.217 216.693 139.198C216.712 139.178 216.735 139.162 216.76 139.152C216.784 139.142 216.81 139.138 216.837 139.14C216.862 139.14 216.887 139.145 216.91 139.156C216.934 139.167 216.955 139.182 216.973 139.202C216.991 139.222 217.005 139.245 217.015 139.271C217.024 139.297 217.029 139.324 217.029 139.352V139.966C217.029 140.048 217.029 140.095 217.029 140.107C217.029 140.119 217.094 140.107 217.158 140.107C217.283 139.98 217.381 139.825 217.446 139.651C217.511 139.478 217.54 139.291 217.533 139.104V135.176C217.533 135.116 217.554 135.059 217.592 135.017C217.631 134.975 217.682 134.951 217.736 134.951C217.79 134.954 217.84 134.979 217.877 135.02C217.915 135.062 217.937 135.117 217.94 135.176V139.104C217.95 139.368 217.903 139.631 217.802 139.872C217.702 140.112 217.551 140.322 217.361 140.485C217.278 140.53 217.187 140.555 217.094 140.555Z" fill="white"/>
<path d="M214.973 137.122V136.733C215.023 135.752 215.282 134.798 215.729 133.948C216.175 133.097 216.797 132.374 217.543 131.837C217.811 131.589 218.141 131.438 218.489 131.404C218.837 131.37 219.186 131.454 219.489 131.646C219.792 131.838 220.034 132.128 220.182 132.477C220.331 132.825 220.378 133.215 220.318 133.595V133.724L214.973 137.122ZM218.743 131.872C218.39 131.89 218.047 132.008 217.747 132.214C217.11 132.678 216.569 133.286 216.163 133.998C215.757 134.71 215.493 135.51 215.39 136.344L219.911 133.477C219.927 133.197 219.878 132.917 219.769 132.663C219.661 132.409 219.496 132.19 219.289 132.026C219.122 131.925 218.934 131.872 218.743 131.872Z" fill="white"/>
<path d="M224.302 136.025C224.248 136.025 224.197 136.001 224.158 135.959C224.12 135.917 224.099 135.86 224.099 135.801V128.274C224.099 128.214 224.12 128.157 224.158 128.115C224.197 128.073 224.248 128.05 224.302 128.05C224.356 128.05 224.408 128.073 224.446 128.115C224.484 128.157 224.506 128.214 224.506 128.274V135.801C224.506 135.86 224.484 135.917 224.446 135.959C224.408 136.001 224.356 136.025 224.302 136.025Z" fill="white"/>
<path d="M223.714 129.996H223.639C223.614 129.986 223.592 129.97 223.574 129.95C223.555 129.93 223.54 129.906 223.53 129.88C223.52 129.853 223.515 129.825 223.515 129.796C223.516 129.768 223.521 129.739 223.531 129.713L224.249 127.896L225.042 128.911C225.076 128.955 225.093 129.012 225.089 129.069C225.085 129.127 225.06 129.18 225.02 129.218C224.981 129.255 224.929 129.274 224.877 129.269C224.824 129.265 224.776 129.238 224.742 129.194L224.356 128.71L223.896 129.89C223.878 129.925 223.851 129.953 223.819 129.972C223.786 129.991 223.75 129.999 223.714 129.996Z" fill="white"/>
<path d="M226.156 134.857C226.104 134.857 226.055 134.835 226.019 134.795C225.983 134.755 225.963 134.701 225.963 134.645V127.118C225.961 127.089 225.965 127.06 225.974 127.033C225.983 127.006 225.997 126.981 226.015 126.96C226.033 126.939 226.055 126.922 226.079 126.911C226.103 126.899 226.129 126.893 226.156 126.893C226.183 126.892 226.21 126.896 226.235 126.907C226.261 126.918 226.284 126.934 226.303 126.955C226.322 126.976 226.337 127.002 226.347 127.03C226.356 127.058 226.361 127.088 226.359 127.118V134.645C226.359 134.674 226.354 134.702 226.343 134.729C226.333 134.755 226.318 134.779 226.299 134.799C226.28 134.819 226.257 134.834 226.233 134.844C226.208 134.854 226.182 134.859 226.156 134.857Z" fill="white"/>
<path d="M225.577 128.828H225.491C225.443 128.803 225.406 128.758 225.386 128.704C225.366 128.649 225.366 128.588 225.384 128.533L226.102 126.716L226.905 127.731C226.939 127.774 226.957 127.828 226.957 127.884C226.957 127.941 226.939 127.995 226.905 128.038C226.886 128.059 226.864 128.076 226.839 128.087C226.814 128.098 226.788 128.104 226.761 128.104C226.734 128.104 226.707 128.098 226.682 128.087C226.658 128.076 226.635 128.059 226.616 128.038L226.241 127.554L225.781 128.734C225.76 128.771 225.729 128.799 225.692 128.816C225.656 128.833 225.616 128.837 225.577 128.828Z" fill="white"/>
<path d="M204.465 153.108L174.011 133.748V72.8707L204.465 92.2429V153.108Z" fill="#E0E0E0"/>
<path d="M180.203 121.089L189.543 126.988C190.084 127.376 190.534 127.899 190.858 128.513C191.181 129.128 191.37 129.818 191.407 130.527V136.886C191.407 138.184 190.572 138.715 189.543 138.066L180.203 132.167C179.663 131.78 179.213 131.257 178.891 130.642C178.569 130.027 178.384 129.337 178.35 128.628V122.28C178.35 120.912 179.185 120.44 180.203 121.089Z" fill="#F5F5F5"/>
<path d="M179.485 122.67L179.839 122.906V129.949L179.485 129.725V122.67Z" fill="#E0E0E0"/>
<path d="M180.931 123.59L181.542 123.991V131.046L180.931 130.645V123.59Z" fill="#E0E0E0"/>
<path d="M182.366 124.51L182.731 124.734L182.72 131.79L182.366 131.565V124.51Z" fill="#E0E0E0"/>
<path d="M183.459 125.195L184.166 125.655V132.71L183.459 132.238V125.195Z" fill="#E0E0E0"/>
<path d="M185.259 126.351L185.612 126.575V133.63L185.259 133.394V126.351Z" fill="#E0E0E0"/>
<path d="M186.298 127L187.058 127.495V134.539L186.298 134.043V127Z" fill="#E0E0E0"/>
<path d="M188.151 128.179L188.504 128.415V135.459L188.151 135.235V128.179Z" fill="#E0E0E0"/>
<path d="M188.976 128.698L189.158 128.816V135.872L188.976 135.754V128.698Z" fill="#E0E0E0"/>
<path d="M187.497 127.802L187.669 127.92V134.963L187.497 134.857V127.802Z" fill="#E0E0E0"/>
<path d="M184.584 125.926L184.755 126.032V133.087L184.584 132.969V125.926Z" fill="#E0E0E0"/>
<path d="M182.988 124.911L183.159 125.029V132.085L182.988 131.967V124.911Z" fill="#E0E0E0"/>
<path d="M181.842 124.215L182.024 124.333V131.388L181.842 131.27V124.215Z" fill="#E0E0E0"/>
<path d="M180.288 123.177L180.47 123.295V130.35L180.288 130.232V123.177Z" fill="#E0E0E0"/>
<path d="M189.597 129.1L189.95 129.324V136.379L189.597 136.155V129.1Z" fill="#E0E0E0"/>
<path d="M188.461 89.9187L191.407 91.7946V83.9371L188.461 82.0613V89.9187Z" fill="#F0F0F0"/>
<path d="M143.548 136.509L121.792 122.682L91.3392 142.042L113.094 155.881L143.548 136.509Z" fill="#F5F5F5"/>
<path d="M113.094 211.213L143.548 191.853V136.509L113.094 155.881V211.213Z" fill="#EBEBEB"/>
<path d="M118.118 200.206C117.982 200.209 117.848 200.168 117.733 200.088C117.564 199.955 117.431 199.777 117.344 199.57C117.258 199.363 117.222 199.135 117.24 198.908V195.368V195.109H117.401L119.907 193.493V197.421C119.902 197.927 119.787 198.424 119.573 198.871C119.359 199.318 119.051 199.703 118.675 199.993C118.51 200.117 118.318 200.19 118.118 200.206ZM117.647 195.64V198.896C117.627 199.048 117.643 199.202 117.694 199.345C117.745 199.488 117.828 199.614 117.936 199.71C118.024 199.748 118.119 199.762 118.212 199.749C118.306 199.737 118.395 199.699 118.472 199.639C118.793 199.393 119.056 199.067 119.242 198.688C119.428 198.309 119.531 197.887 119.543 197.457V197.173H118.611L118.429 195.793L117.647 195.64ZM118.932 196.725H119.511V194.295L118.011 195.262L118.75 195.404L118.932 196.725Z" fill="white"/>
<path d="M118.579 203.014C118.525 203.014 118.473 202.99 118.435 202.948C118.397 202.906 118.375 202.849 118.375 202.789V199.828C118.375 199.799 118.381 199.771 118.391 199.744C118.401 199.718 118.416 199.694 118.436 199.674C118.455 199.654 118.477 199.638 118.502 199.628C118.526 199.618 118.553 199.614 118.579 199.616C118.63 199.616 118.679 199.638 118.715 199.678C118.751 199.718 118.772 199.772 118.772 199.828V202.789C118.772 202.847 118.752 202.902 118.716 202.944C118.68 202.986 118.631 203.011 118.579 203.014Z" fill="white"/>
<path d="M117.411 203.745C117.376 203.747 117.342 203.738 117.311 203.72C117.281 203.701 117.256 203.673 117.24 203.639C117.224 203.615 117.214 203.587 117.209 203.558C117.204 203.529 117.204 203.499 117.21 203.47C117.216 203.441 117.228 203.414 117.244 203.39C117.26 203.366 117.281 203.347 117.304 203.332L119.639 201.857C119.662 201.843 119.688 201.833 119.715 201.829C119.741 201.825 119.768 201.827 119.794 201.835C119.82 201.843 119.844 201.856 119.865 201.874C119.887 201.892 119.904 201.914 119.918 201.94C119.931 201.965 119.939 201.992 119.943 202.02C119.946 202.049 119.944 202.078 119.937 202.105C119.93 202.133 119.918 202.158 119.902 202.181C119.886 202.203 119.866 202.221 119.843 202.235L117.508 203.721C117.479 203.74 117.445 203.749 117.411 203.745Z" fill="white"/>
<path d="M125.724 198.66C125.645 198.66 125.568 198.64 125.499 198.601C125.42 198.543 125.357 198.464 125.316 198.371C125.275 198.277 125.256 198.174 125.263 198.07V197.457C125.263 197.401 125.283 197.346 125.319 197.307C125.356 197.267 125.405 197.244 125.456 197.244C125.482 197.243 125.508 197.247 125.533 197.257C125.557 197.267 125.58 197.282 125.599 197.302C125.618 197.322 125.633 197.346 125.644 197.373C125.654 197.399 125.659 197.428 125.659 197.457V198.07C125.659 198.153 125.659 198.2 125.659 198.212C125.659 198.224 125.724 198.212 125.788 198.212C125.911 198.083 126.007 197.927 126.072 197.754C126.137 197.582 126.168 197.396 126.163 197.209V193.28C126.156 193.247 126.156 193.213 126.162 193.18C126.169 193.147 126.182 193.116 126.201 193.09C126.22 193.064 126.245 193.042 126.272 193.027C126.3 193.013 126.33 193.005 126.361 193.005C126.392 193.005 126.422 193.013 126.449 193.027C126.477 193.042 126.501 193.064 126.52 193.09C126.539 193.116 126.553 193.147 126.559 193.18C126.566 193.213 126.566 193.247 126.559 193.28V197.209C126.568 197.472 126.521 197.733 126.423 197.973C126.324 198.212 126.176 198.423 125.991 198.589C125.908 198.635 125.817 198.659 125.724 198.66Z" fill="white"/>
<path d="M123.603 195.239V194.849C123.653 193.869 123.912 192.915 124.359 192.064C124.805 191.214 125.427 190.491 126.173 189.953C126.439 189.703 126.769 189.549 127.118 189.514C127.466 189.479 127.816 189.563 128.119 189.756C128.423 189.949 128.664 190.24 128.81 190.59C128.957 190.941 129.001 191.332 128.937 191.711V191.841L123.603 195.239ZM127.373 189.989C127.02 190.006 126.677 190.124 126.377 190.331C125.739 190.794 125.199 191.402 124.793 192.115C124.387 192.827 124.123 193.627 124.02 194.46L128.541 191.581C128.556 191.303 128.507 191.025 128.398 190.774C128.289 190.522 128.125 190.305 127.919 190.142C127.756 190.039 127.572 189.983 127.384 189.977L127.373 189.989Z" fill="white"/>
<path d="M132.932 194.13C132.878 194.13 132.827 194.106 132.788 194.064C132.75 194.022 132.729 193.965 132.729 193.906V186.379C132.729 186.319 132.75 186.262 132.788 186.22C132.827 186.178 132.878 186.154 132.932 186.154C132.986 186.154 133.038 186.178 133.076 186.22C133.114 186.262 133.136 186.319 133.136 186.379V193.906C133.136 193.965 133.114 194.022 133.076 194.064C133.038 194.106 132.986 194.13 132.932 194.13Z" fill="white"/>
<path d="M132.343 188.16H132.268C132.244 188.15 132.222 188.134 132.203 188.114C132.185 188.094 132.17 188.07 132.16 188.043C132.15 188.017 132.145 187.989 132.145 187.96C132.145 187.931 132.151 187.903 132.161 187.877L132.879 186.06L133.671 187.074C133.706 187.118 133.722 187.175 133.718 187.233C133.714 187.29 133.69 187.344 133.65 187.381C133.63 187.4 133.608 187.414 133.583 187.423C133.558 187.432 133.532 187.435 133.506 187.433C133.454 187.428 133.406 187.401 133.372 187.358L132.986 186.874L132.525 188.054C132.507 188.089 132.48 188.117 132.448 188.136C132.416 188.155 132.38 188.163 132.343 188.16Z" fill="white"/>
<path d="M134.785 192.962C134.733 192.962 134.683 192.94 134.645 192.9C134.607 192.861 134.585 192.807 134.582 192.749V185.222C134.582 185.163 134.603 185.106 134.642 185.064C134.68 185.022 134.732 184.998 134.785 184.998C134.813 184.997 134.84 185.001 134.865 185.012C134.891 185.022 134.914 185.039 134.933 185.06C134.952 185.081 134.967 185.107 134.977 185.135C134.986 185.163 134.991 185.193 134.989 185.222V192.749C134.989 192.778 134.984 192.807 134.973 192.834C134.963 192.86 134.948 192.884 134.929 192.904C134.91 192.924 134.887 192.939 134.863 192.949C134.838 192.959 134.812 192.963 134.785 192.962Z" fill="white"/>
<path d="M134.196 186.98C134.172 186.99 134.146 186.99 134.121 186.98C134.097 186.97 134.075 186.954 134.056 186.934C134.038 186.914 134.023 186.89 134.013 186.864C134.003 186.837 133.998 186.809 133.998 186.78C133.998 186.752 134.004 186.723 134.014 186.697L134.732 184.88L135.525 185.895C135.56 185.936 135.58 185.991 135.58 186.048C135.58 186.105 135.56 186.16 135.525 186.202C135.506 186.223 135.483 186.239 135.458 186.251C135.433 186.262 135.407 186.268 135.38 186.268C135.353 186.268 135.326 186.262 135.302 186.251C135.277 186.239 135.254 186.223 135.235 186.202L134.86 185.718L134.4 186.898C134.376 186.931 134.345 186.957 134.309 186.971C134.273 186.986 134.234 186.989 134.196 186.98Z" fill="white"/>
<path d="M113.094 211.213L91.3392 197.386V142.042L113.094 155.881V211.213Z" fill="#E0E0E0"/>
<path d="M101.44 156.329L104.386 158.205V150.348L101.44 148.472V156.329Z" fill="#F5F5F5"/>
<path d="M104.386 150.348L134.85 130.975L131.893 129.1L101.44 148.472L104.386 150.348Z" fill="white"/>
<path d="M104.386 183.547L65.2349 158.653L26.0732 183.547L65.2349 208.452L104.386 183.547Z" fill="#F5F5F5"/>
<path d="M65.2349 241.652L104.386 216.758V183.547L65.2349 208.452V241.652Z" fill="#EBEBEB"/>
<path d="M70.2587 230.633C70.1232 230.63 69.9905 230.589 69.8731 230.515C69.7057 230.381 69.5724 230.203 69.486 229.996C69.3997 229.789 69.3633 229.561 69.3803 229.335V225.795V225.536H69.541L72.0475 223.908V227.848C72.0406 228.352 71.9253 228.846 71.7112 229.291C71.4971 229.737 71.1902 230.119 70.8157 230.408C70.6509 230.535 70.4589 230.612 70.2587 230.633ZM69.7767 226.067V229.323C69.7576 229.473 69.7743 229.626 69.825 229.766C69.8757 229.907 69.9587 230.031 70.0659 230.125C70.1536 230.169 70.2503 230.187 70.3462 230.177C70.4422 230.166 70.5339 230.128 70.6122 230.066C70.9318 229.818 71.1948 229.492 71.3807 229.114C71.5665 228.735 71.6701 228.314 71.6833 227.884V227.589H70.7193L70.5372 226.208L69.7767 226.067ZM71.0621 227.152H71.6833V224.734L70.1944 225.701L70.9335 225.843L71.0621 227.152Z" fill="white"/>
<path d="M70.7085 233.44C70.6832 233.44 70.6582 233.435 70.6348 233.424C70.6114 233.414 70.5901 233.398 70.5722 233.378C70.5543 233.358 70.5401 233.335 70.5304 233.309C70.5207 233.283 70.5157 233.256 70.5157 233.228V230.267C70.5088 230.234 70.5086 230.2 70.5153 230.167C70.522 230.134 70.5354 230.103 70.5544 230.076C70.5735 230.05 70.5977 230.028 70.6254 230.014C70.653 229.999 70.6832 229.991 70.7139 229.991C70.7446 229.991 70.7749 229.999 70.8025 230.014C70.8301 230.028 70.8543 230.05 70.8734 230.076C70.8924 230.103 70.9058 230.134 70.9125 230.167C70.9192 230.2 70.9191 230.234 70.9121 230.267V233.228C70.9121 233.257 70.9068 233.286 70.8964 233.312C70.8861 233.339 70.8709 233.363 70.8519 233.382C70.8328 233.402 70.8103 233.418 70.7856 233.428C70.761 233.438 70.7348 233.442 70.7085 233.44Z" fill="white"/>
<path d="M69.541 234.172C69.4981 234.169 69.4571 234.151 69.424 234.121C69.3909 234.091 69.3673 234.05 69.3566 234.004C69.3459 233.958 69.3486 233.91 69.3644 233.866C69.3803 233.822 69.4083 233.784 69.4446 233.759L71.7797 232.284C71.8009 232.267 71.8252 232.256 71.8508 232.25C71.8765 232.245 71.9029 232.245 71.9283 232.252C71.9537 232.259 71.9775 232.271 71.9981 232.289C72.0186 232.307 72.0355 232.329 72.0475 232.355C72.0629 232.379 72.0735 232.407 72.0786 232.436C72.0837 232.465 72.0832 232.495 72.0771 232.524C72.0711 232.553 72.0596 232.58 72.0434 232.604C72.0272 232.627 72.0067 232.647 71.9832 232.662L69.6481 234.172H69.541Z" fill="white"/>
<path d="M77.8532 229.099C77.7827 229.116 77.7095 229.116 77.639 229.099C77.5571 229.041 77.491 228.96 77.4476 228.865C77.4042 228.769 77.3852 228.662 77.3926 228.556V227.954C77.3926 227.895 77.414 227.838 77.4522 227.796C77.4904 227.754 77.5421 227.73 77.5961 227.73C77.6501 227.73 77.7019 227.754 77.74 227.796C77.7782 227.838 77.7996 227.895 77.7996 227.954V228.556C77.7849 228.606 77.7849 228.659 77.7996 228.709C77.7996 228.709 77.8639 228.709 77.9389 228.709C78.0598 228.579 78.1546 228.423 78.2173 228.25C78.2801 228.078 78.3093 227.892 78.3031 227.706V223.778C78.3057 223.719 78.328 223.664 78.3656 223.622C78.4032 223.581 78.4535 223.556 78.5066 223.554C78.5606 223.554 78.6124 223.577 78.6505 223.619C78.6887 223.661 78.7101 223.718 78.7101 223.778V227.706C78.7189 227.969 78.6723 228.231 78.5738 228.47C78.4752 228.71 78.3276 228.921 78.1424 229.087C78.0482 229.116 77.9491 229.12 77.8532 229.099Z" fill="white"/>
<path d="M75.743 225.665V225.276C75.7895 224.294 76.0468 223.339 76.4937 222.487C76.9406 221.636 77.5644 220.914 78.3138 220.38C78.5799 220.13 78.9099 219.976 79.2584 219.941C79.6069 219.905 79.9568 219.99 80.2599 220.183C80.563 220.376 80.8044 220.667 80.9508 221.017C81.0972 221.367 81.1414 221.759 81.0774 222.138V222.268L75.743 225.665ZM79.5135 220.415C79.1573 220.435 78.8112 220.553 78.5066 220.758C77.8712 221.222 77.3332 221.831 76.9287 222.543C76.5241 223.255 76.2623 224.054 76.1608 224.887L80.6704 222.008C80.6877 221.731 80.6407 221.453 80.5339 221.202C80.4271 220.95 80.264 220.732 80.0598 220.569C79.8934 220.465 79.7048 220.412 79.5135 220.415Z" fill="white"/>
<path d="M85.0728 224.568C85.0456 224.57 85.0185 224.566 84.9931 224.555C84.9677 224.544 84.9446 224.528 84.9254 224.507C84.9062 224.485 84.8913 224.46 84.8816 224.432C84.8719 224.404 84.8677 224.374 84.8693 224.344V216.817C84.8623 216.784 84.8621 216.75 84.8688 216.717C84.8755 216.684 84.8889 216.653 84.908 216.627C84.927 216.6 84.9513 216.579 84.9789 216.564C85.0065 216.55 85.0368 216.542 85.0674 216.542C85.0981 216.542 85.1284 216.55 85.156 216.564C85.1836 216.579 85.2078 216.6 85.2269 216.627C85.246 216.653 85.2593 216.684 85.266 216.717C85.2727 216.75 85.2726 216.784 85.2656 216.817V224.344C85.2671 224.373 85.2631 224.402 85.2541 224.429C85.2451 224.456 85.2311 224.481 85.2131 224.502C85.195 224.523 85.1732 224.54 85.1491 224.551C85.125 224.563 85.099 224.569 85.0728 224.568Z" fill="white"/>
<path d="M84.5373 218.54H84.4516C84.4269 218.528 84.4046 218.511 84.3861 218.49C84.3677 218.469 84.3535 218.443 84.3444 218.415C84.3353 218.388 84.3316 218.358 84.3335 218.329C84.3353 218.299 84.3427 218.271 84.3552 218.245L85.0622 216.428L85.8655 217.442C85.9011 217.488 85.9188 217.547 85.9147 217.606C85.9107 217.666 85.8853 217.722 85.8441 217.761C85.8029 217.8 85.7493 217.819 85.6951 217.815C85.6408 217.811 85.5904 217.783 85.5549 217.737L85.18 217.254L84.7194 218.433C84.7004 218.467 84.6735 218.495 84.6415 218.514C84.6094 218.532 84.5735 218.541 84.5373 218.54Z" fill="white"/>
<path d="M86.926 223.4C86.872 223.4 86.8202 223.377 86.7821 223.335C86.7439 223.293 86.7224 223.236 86.7224 223.176V215.649C86.7224 215.59 86.7439 215.533 86.7821 215.491C86.8202 215.449 86.872 215.425 86.926 215.425C86.9799 215.425 87.0317 215.449 87.0699 215.491C87.108 215.533 87.1295 215.59 87.1295 215.649V223.176C87.1295 223.236 87.108 223.293 87.0699 223.335C87.0317 223.377 86.9799 223.4 86.926 223.4Z" fill="white"/>
<path d="M86.3368 217.372H86.2618C86.2375 217.361 86.2154 217.346 86.1968 217.326C86.1781 217.306 86.1634 217.282 86.1534 217.255C86.1433 217.229 86.1383 217.2 86.1385 217.172C86.1388 217.143 86.1442 217.115 86.1547 217.088L86.8724 215.26L87.665 216.274C87.6841 216.295 87.6993 216.32 87.7096 216.347C87.72 216.375 87.7253 216.404 87.7253 216.434C87.7253 216.463 87.72 216.493 87.7096 216.52C87.6993 216.547 87.6841 216.572 87.665 216.593C87.647 216.614 87.6254 216.63 87.6015 216.641C87.5775 216.653 87.5518 216.658 87.5258 216.658C87.4997 216.658 87.474 216.653 87.4501 216.641C87.4261 216.63 87.4045 216.614 87.3865 216.593L87.0009 216.109L86.5403 217.289C86.5178 217.324 86.4864 217.35 86.4501 217.365C86.4138 217.38 86.3743 217.382 86.3368 217.372Z" fill="white"/>
<path d="M65.2349 241.652L26.0732 216.758V183.547L65.2349 208.452V241.652Z" fill="#E0E0E0"/>
<path d="M44.1759 202.919L47.1216 204.795V196.938L44.1759 195.062V202.919Z" fill="#F5F5F5"/>
<path d="M47.1216 196.938L86.2833 172.044L83.3376 170.156L44.1759 195.062L47.1216 196.938Z" fill="white"/>
<path d="M32.2752 204.099L41.6158 209.998C42.1562 210.386 42.6063 210.909 42.93 211.523C43.2537 212.138 43.442 212.828 43.4796 213.537V219.896C43.4796 221.194 42.6441 221.725 41.6158 221.076L32.2752 215.177C31.7351 214.79 31.2857 214.267 30.9636 213.652C30.6416 213.037 30.4561 212.347 30.4221 211.638V205.291C30.4221 203.969 31.2576 203.497 32.2752 204.099Z" fill="#F5F5F5"/>
<path d="M31.5576 205.68L31.9111 205.904V212.959L31.5576 212.735V205.68Z" fill="#E0E0E0"/>
<path d="M32.9929 206.6L33.6142 207.001V214.045L32.9929 213.655V206.6Z" fill="#E0E0E0"/>
<path d="M34.439 207.52L34.8032 207.744L34.7925 214.8L34.439 214.575V207.52Z" fill="#E0E0E0"/>
<path d="M35.5316 208.205L36.2493 208.665L36.2386 215.72L35.5316 215.248V208.205Z" fill="#E0E0E0"/>
<path d="M37.3311 209.361L37.6846 209.585V216.64L37.3311 216.404V209.361Z" fill="#E0E0E0"/>
<path d="M38.3702 210.01L39.1307 210.505V217.548L38.3702 217.053V210.01Z" fill="#E0E0E0"/>
<path d="M40.2233 211.201L40.5768 211.425V218.469L40.2233 218.245V211.201Z" fill="#E0E0E0"/>
<path d="M41.0481 211.709L41.2302 211.827V218.87L41.0481 218.764V211.709Z" fill="#E0E0E0"/>
<path d="M39.5699 210.812L39.7412 210.918V217.973L39.5699 217.867V210.812Z" fill="#E0E0E0"/>
<path d="M36.6563 208.936L36.8277 209.042V216.097L36.6563 215.979V208.936Z" fill="#E0E0E0"/>
<path d="M35.0603 207.922L35.2424 208.039V215.083L35.0603 214.977V207.922Z" fill="#E0E0E0"/>
<path d="M33.9141 207.225L34.0962 207.343V214.398L33.9141 214.28V207.225Z" fill="#E0E0E0"/>
<path d="M32.3609 206.187L32.543 206.305V213.348L32.3609 213.242V206.187Z" fill="#E0E0E0"/>
<path d="M41.6693 212.11L42.0228 212.346V219.389L41.6693 219.165V212.11Z" fill="#E0E0E0"/>
<path d="M95.6881 117.148L65.2349 97.7762L34.7711 117.148L65.2349 136.509L95.6881 117.148Z" fill="#F5F5F5"/>
<path d="M65.2349 202.919L95.6881 183.547V117.148L65.2349 136.509V202.919Z" fill="#EBEBEB"/>
<path d="M70.2587 191.9C70.124 191.901 69.9913 191.865 69.8731 191.794C69.7057 191.66 69.5724 191.482 69.486 191.275C69.3997 191.068 69.3633 190.841 69.3803 190.614V187.074V186.815H69.541L72.0475 185.199V189.127C72.0414 189.633 71.9266 190.129 71.7124 190.576C71.4983 191.024 71.191 191.408 70.8157 191.699C70.6492 191.819 70.4571 191.888 70.2587 191.9ZM69.7767 187.334V190.602C69.7597 190.752 69.7773 190.904 69.8279 191.044C69.8784 191.184 69.9603 191.308 70.0659 191.404C70.1536 191.448 70.2503 191.466 70.3462 191.456C70.4422 191.446 70.5339 191.407 70.6122 191.345C70.932 191.095 71.195 190.767 71.3808 190.386C71.5666 190.006 71.6701 189.583 71.6833 189.151V188.868H70.7193L70.5372 187.487L69.7767 187.334ZM71.0621 188.419H71.6833V186.001L70.1944 186.968L70.9335 187.11L71.0621 188.419Z" fill="white"/>
<path d="M70.7086 194.708C70.6823 194.708 70.6563 194.702 70.6322 194.691C70.6081 194.679 70.5864 194.663 70.5683 194.642C70.5503 194.621 70.5363 194.596 70.5273 194.569C70.5182 194.541 70.5143 194.513 70.5158 194.484V191.534C70.5143 191.505 70.5182 191.476 70.5273 191.449C70.5363 191.422 70.5503 191.397 70.5683 191.376C70.5864 191.355 70.6081 191.339 70.6322 191.327C70.6563 191.316 70.6823 191.31 70.7086 191.31C70.7357 191.308 70.7629 191.313 70.7883 191.324C70.8137 191.334 70.8367 191.351 70.8559 191.372C70.8752 191.393 70.8901 191.418 70.8998 191.446C70.9094 191.474 70.9136 191.504 70.9121 191.534V194.484C70.9136 194.514 70.9094 194.543 70.8998 194.571C70.8901 194.599 70.8752 194.625 70.8559 194.646C70.8367 194.667 70.8137 194.684 70.7883 194.694C70.7629 194.705 70.7357 194.71 70.7086 194.708Z" fill="white"/>
<path d="M69.541 195.451C69.4981 195.448 69.4571 195.43 69.424 195.4C69.3909 195.37 69.3673 195.329 69.3566 195.283C69.3459 195.237 69.3486 195.189 69.3644 195.145C69.3803 195.101 69.4083 195.064 69.4446 195.038L71.7797 193.552C71.8266 193.522 71.8823 193.514 71.9345 193.529C71.9867 193.545 72.0312 193.583 72.0582 193.634C72.0852 193.686 72.0925 193.747 72.0784 193.805C72.0643 193.862 72.0301 193.911 71.9832 193.941L69.6481 195.416C69.6166 195.44 69.5792 195.452 69.541 195.451Z" fill="white"/>
<path d="M77.8532 190.366C77.777 190.366 77.7025 190.342 77.639 190.295C77.5571 190.241 77.4907 190.162 77.4472 190.068C77.4037 189.975 77.3848 189.869 77.3926 189.764V189.163C77.3926 189.103 77.414 189.046 77.4522 189.004C77.4904 188.962 77.5421 188.939 77.5961 188.939C77.6501 188.939 77.7019 188.962 77.74 189.004C77.7782 189.046 77.7996 189.103 77.7996 189.163V189.764C77.7849 189.814 77.7849 189.868 77.7996 189.918C77.8452 189.932 77.8934 189.932 77.9389 189.918C78.0612 189.792 78.1571 189.638 78.2199 189.466C78.2828 189.295 78.3112 189.111 78.3031 188.927V184.998C78.3031 184.939 78.3245 184.882 78.3627 184.84C78.4009 184.798 78.4526 184.774 78.5066 184.774C78.5338 184.772 78.5609 184.777 78.5863 184.787C78.6117 184.798 78.6348 184.815 78.654 184.836C78.6732 184.857 78.6881 184.882 78.6978 184.91C78.7075 184.938 78.7117 184.968 78.7101 184.998V188.927C78.719 189.19 78.6723 189.451 78.5738 189.691C78.4752 189.93 78.3276 190.141 78.1424 190.307C78.0517 190.352 77.9525 190.372 77.8532 190.366Z" fill="white"/>
<path d="M75.743 186.98V186.603C75.7913 185.62 76.0492 184.663 76.4959 183.81C76.9425 182.958 77.5653 182.233 78.3138 181.695C78.5822 181.45 78.9124 181.302 79.2597 181.27C79.607 181.239 79.9548 181.325 80.256 181.518C80.5573 181.711 80.7976 182.001 80.9445 182.349C81.0914 182.697 81.1378 183.086 81.0774 183.464V183.582L75.743 186.98ZM79.5135 181.742C79.1573 181.762 78.8112 181.88 78.5066 182.084C77.8725 182.547 77.3352 183.154 76.9307 183.864C76.5262 184.574 76.2638 185.371 76.1608 186.202L80.6704 183.335C80.6897 183.057 80.6437 182.779 80.5367 182.527C80.4298 182.275 80.2655 182.057 80.0598 181.895C79.8989 181.771 79.7099 181.697 79.5135 181.683V181.742Z" fill="white"/>
<path d="M85.0728 185.801C85.0188 185.801 84.967 185.777 84.9289 185.735C84.8907 185.693 84.8693 185.636 84.8693 185.576V178.049C84.8623 178.016 84.8621 177.982 84.8688 177.949C84.8755 177.916 84.8889 177.885 84.908 177.859C84.927 177.832 84.9513 177.811 84.9789 177.796C85.0065 177.782 85.0368 177.774 85.0674 177.774C85.0981 177.774 85.1284 177.782 85.156 177.796C85.1836 177.811 85.2078 177.832 85.2269 177.859C85.246 177.885 85.2593 177.916 85.266 177.949C85.2727 177.982 85.2726 178.016 85.2656 178.049V185.576C85.2657 185.634 85.2457 185.689 85.2098 185.731C85.1739 185.773 85.1249 185.797 85.0728 185.801Z" fill="white"/>
<path d="M84.5373 179.795H84.4516C84.4269 179.784 84.4046 179.767 84.3861 179.746C84.3677 179.724 84.3535 179.699 84.3444 179.671C84.3353 179.643 84.3316 179.614 84.3335 179.585C84.3353 179.555 84.3427 179.526 84.3552 179.5L85.0622 177.683L85.8655 178.698C85.9009 178.74 85.9206 178.794 85.9206 178.851C85.9206 178.908 85.9009 178.963 85.8655 179.005C85.8261 179.045 85.7745 179.067 85.7209 179.067C85.6674 179.067 85.6158 179.045 85.5763 179.005L85.2014 178.521L84.7408 179.701C84.7198 179.738 84.689 179.766 84.6526 179.783C84.6162 179.8 84.5759 179.804 84.5373 179.795Z" fill="white"/>
<path d="M86.926 184.621C86.8728 184.618 86.8226 184.593 86.7849 184.552C86.7473 184.51 86.725 184.455 86.7224 184.396V176.869C86.7224 176.81 86.7439 176.753 86.7821 176.711C86.8202 176.669 86.872 176.645 86.926 176.645C86.9799 176.645 87.0317 176.669 87.0699 176.711C87.108 176.753 87.1295 176.81 87.1295 176.869V184.396C87.1269 184.455 87.1046 184.51 87.067 184.552C87.0294 184.593 86.9791 184.618 86.926 184.621Z" fill="white"/>
<path d="M86.3368 178.639H86.2618C86.2372 178.628 86.2148 178.611 86.1961 178.59C86.1774 178.569 86.1626 178.544 86.1526 178.516C86.1427 178.489 86.1377 178.46 86.1381 178.43C86.1384 178.4 86.1441 178.371 86.1547 178.344L86.8724 176.527L87.665 177.542C87.6841 177.563 87.6993 177.588 87.7097 177.615C87.72 177.642 87.7253 177.672 87.7253 177.701C87.7253 177.731 87.72 177.76 87.7097 177.788C87.6993 177.815 87.6841 177.84 87.665 177.861C87.6262 177.897 87.5769 177.917 87.5258 177.917C87.4747 177.917 87.4253 177.897 87.3865 177.861L87.0009 177.377L86.5403 178.557C86.5169 178.59 86.4854 178.616 86.4494 178.63C86.4134 178.645 86.3743 178.648 86.3368 178.639Z" fill="white"/>
<path d="M65.2349 202.919L34.7711 183.547V117.148L65.2349 136.509V202.919Z" fill="#E0E0E0"/>
<path d="M49.221 134.185L52.1774 136.06V128.215L49.221 126.327V134.185Z" fill="#F5F5F5"/>
<path d="M52.1774 128.215L82.6306 108.843L79.6849 106.967L49.221 126.327L52.1774 128.215Z" fill="white"/>
<path d="M40.9731 170.888L50.3136 176.787C50.8544 177.174 51.3043 177.696 51.6264 178.311C51.9485 178.926 52.1337 179.617 52.1667 180.326V186.674C52.1667 187.971 51.3419 188.502 50.3136 187.853L40.9731 181.954C40.4309 181.568 39.9794 181.046 39.6555 180.431C39.3315 179.816 39.1444 179.125 39.1093 178.415V172.068C39.12 170.77 39.9448 170.239 40.9731 170.888Z" fill="#F5F5F5"/>
<path d="M40.2447 172.481L40.5982 172.705V179.76L40.2447 179.524V172.481Z" fill="#E0E0E0"/>
<path d="M41.6908 173.401L42.3013 173.79V180.845L41.6908 180.444V173.401Z" fill="#E0E0E0"/>
<path d="M43.1368 174.309L43.4903 174.545V181.589L43.1368 181.364V174.309Z" fill="#E0E0E0"/>
<path d="M44.2294 174.994L44.9364 175.465V182.509L44.2294 182.049V174.994Z" fill="#E0E0E0"/>
<path d="M46.029 176.15L46.3825 176.374V183.429L46.029 183.205V176.15Z" fill="#E0E0E0"/>
<path d="M47.068 176.799L47.8285 177.294V184.349L47.068 183.854V176.799Z" fill="#E0E0E0"/>
<path d="M48.9211 177.99L49.2746 178.214V185.27L48.9211 185.034V177.99Z" fill="#E0E0E0"/>
<path d="M49.7459 178.509L49.9173 178.615V185.671L49.7459 185.553V178.509Z" fill="#E0E0E0"/>
<path d="M48.257 177.601L48.4391 177.719V184.774L48.257 184.656V177.601Z" fill="#E0E0E0"/>
<path d="M45.3434 175.725L45.5255 175.843V182.886L45.3434 182.78V175.725Z" fill="#E0E0E0"/>
<path d="M43.7474 174.722L43.9295 174.828V181.883L43.7474 181.766V174.722Z" fill="#E0E0E0"/>
<path d="M42.612 174.026L42.7834 174.132V181.187L42.612 181.069V174.026Z" fill="#E0E0E0"/>
<path d="M41.0588 172.988L41.2302 173.094V180.149L41.0588 180.031V172.988Z" fill="#E0E0E0"/>
<path d="M50.3565 178.911L50.7207 179.135V186.178L50.3565 185.954V178.911Z" fill="#E0E0E0"/>
<path d="M35.0603 299.945L151.967 374.272C153.404 375.075 154.993 375.494 156.605 375.494C158.217 375.494 159.806 375.075 161.243 374.272L417.391 211.461C419.951 209.833 419.951 207.19 417.391 205.562L300.484 131.235C299.048 130.426 297.458 130.005 295.846 130.005C294.233 130.005 292.643 130.426 291.208 131.235L35.0603 294.046C32.5002 295.674 32.5002 298.317 35.0603 299.945Z" fill="#455A64"/>
<path d="M98.2481 334.454C100.241 335.562 102.443 336.139 104.675 336.139C106.908 336.139 109.109 335.562 111.102 334.454C114.669 332.189 114.669 328.555 111.102 326.254C109.11 325.141 106.909 324.561 104.675 324.561C102.442 324.561 100.24 325.141 98.2481 326.254C94.6812 328.555 94.6812 332.212 98.2481 334.454Z" fill="#263238"/>
<path d="M154.163 374.272L37.2561 299.945C34.9639 298.482 34.7282 296.217 36.5385 294.589C35.3951 295.585 34.455 296.835 33.7795 298.258C33.104 299.681 32.7083 301.245 32.618 302.847V307.649C32.7059 309.422 33.1717 311.146 33.9775 312.684C34.7833 314.221 35.9065 315.527 37.2561 316.498L154.163 390.824C155.592 391.647 157.189 392.053 158.801 392.004V375.499C157.185 375.533 155.588 375.111 154.163 374.272Z" fill="#263238"/>
<path d="M417.38 228.001C418.732 227.034 419.859 225.728 420.666 224.191C421.474 222.653 421.941 220.927 422.028 219.153V214.351C421.942 212.747 421.546 211.18 420.868 209.757C420.191 208.333 419.246 207.084 418.097 206.093C419.918 207.721 419.683 209.986 417.39 211.437L161.243 374.272C159.813 375.091 158.217 375.497 156.605 375.452V392.051C158.217 392.097 159.813 391.691 161.243 390.872L417.38 228.001Z" fill="#263238"/>
<path d="M171.226 358.876L59.3328 287.687C57.7903 286.708 57.7903 285.115 59.3328 284.148L275.622 146.572C276.485 146.089 277.439 145.838 278.407 145.838C279.375 145.838 280.329 146.089 281.192 146.572L393.129 217.749C394.66 218.728 394.66 220.309 393.129 221.288L176.754 358.876C175.896 359.351 174.95 359.598 173.99 359.598C173.03 359.598 172.084 359.351 171.226 358.876Z" fill="white"/>
<path d="M126.141 319.129L139.199 310.823L134.85 308.062L121.792 316.356L126.141 319.129Z" fill="#FFAB00"/>
<path d="M282.788 219.519L295.846 211.213L291.486 208.452L278.439 216.758L282.788 219.519Z" fill="#FFAB00"/>
<path d="M308.892 202.919L321.949 194.613L317.601 191.853L304.543 200.147L308.892 202.919Z" fill="#FFAB00"/>
<path d="M350.796 173.837C351.303 174.117 351.863 174.262 352.43 174.262C352.997 174.262 353.556 174.117 354.063 173.837C354.26 173.763 354.431 173.623 354.551 173.437C354.672 173.251 354.737 173.028 354.737 172.799C354.737 172.57 354.672 172.347 354.551 172.161C354.431 171.975 354.26 171.835 354.063 171.761C353.558 171.476 352.998 171.328 352.43 171.328C351.862 171.328 351.302 171.476 350.796 171.761C350.6 171.835 350.429 171.975 350.308 172.161C350.187 172.347 350.122 172.57 350.122 172.799C350.122 173.028 350.187 173.251 350.308 173.437C350.429 173.623 350.6 173.763 350.796 173.837Z" fill="#263238"/>
<path d="M356.013 190.13C357.024 190.694 358.141 190.988 359.274 190.988C360.408 190.988 361.525 190.694 362.536 190.13C364.336 188.95 364.336 187.122 362.536 185.977C361.525 185.413 360.408 185.12 359.274 185.12C358.141 185.12 357.024 185.413 356.013 185.977C354.213 187.122 354.213 188.986 356.013 190.13Z" fill="#263238"/>
<path d="M351.407 182.91C352.607 182.143 352.542 180.869 351.268 180.055L329.844 166.405C329.155 165.997 328.387 165.777 327.605 165.76C326.823 165.744 326.048 165.932 325.345 166.31C324.146 167.077 324.21 168.351 325.485 169.165L346.972 182.815C347.654 183.21 348.41 183.424 349.179 183.44C349.949 183.457 350.712 183.275 351.407 182.91Z" fill="#263238"/>
<path d="M314.837 127.554L315.566 127.082C315.063 129.095 314.817 131.176 314.837 133.264V136.143C314.837 146.478 326.095 172.882 330.241 182.226C330.669 183.205 324.981 189.871 324.981 189.871L331.74 185.576C331.74 185.576 348.632 170.239 348.632 157.639V154.76C348.632 142.101 341.07 127.035 331.74 121.101C327.027 118.116 322.774 118.01 319.711 120.275L313.284 124.333L314.837 127.554ZM323.289 137.217C323.289 131.318 327.07 128.875 331.74 131.849C331.355 135.659 337.674 147.528 340.181 147.964C340.181 153.863 336.4 156.306 331.74 153.332C329.288 151.563 327.248 149.181 325.787 146.381C324.326 143.581 323.485 140.442 323.332 137.217H323.289Z" fill="#FFAB00"/>
<path d="M307.885 140.756C308.078 153.403 325.517 189.871 325.517 189.871C325.517 189.871 342.184 174.274 342.002 161.626V158.748C341.809 146.1 334.022 131.164 324.595 125.407C315.169 119.649 307.693 125.218 307.885 137.877V140.756ZM316.348 141.676C316.262 135.777 320.011 133.264 324.713 136.143C327.199 137.864 329.281 140.206 330.79 142.98C332.3 145.753 333.194 148.88 333.4 152.106C333.497 158.005 329.748 160.517 325.035 157.639C322.552 155.914 320.472 153.571 318.963 150.798C317.454 148.025 316.558 144.901 316.348 141.676Z" fill="#FFAB00"/>
<path opacity="0.1" d="M307.885 140.756C308.078 153.403 325.517 189.871 325.517 189.871C325.517 189.871 342.184 174.274 342.002 161.626V158.748C341.809 146.1 334.022 131.164 324.595 125.407C315.169 119.649 307.693 125.218 307.885 137.877V140.756ZM316.348 141.676C316.262 135.777 320.011 133.264 324.713 136.143C327.199 137.864 329.281 140.206 330.79 142.98C332.3 145.753 333.194 148.88 333.4 152.106C333.497 158.005 329.748 160.517 325.035 157.639C322.552 155.914 320.472 153.571 318.963 150.798C317.454 148.025 316.558 144.901 316.348 141.676Z" fill="black"/>
<path d="M144.522 309.431C155.352 316.297 180.738 311.306 201.23 298.27L257.519 262.487C278.011 249.45 285.83 233.334 274.979 226.479C264.128 219.625 238.72 224.639 218.208 237.664L162.025 273.4C141.544 286.425 133.704 302.6 144.522 309.431Z" fill="#F0F0F0"/>
<path d="M308.41 9.44518H308.464L317.729 3.54622H317.804C323.642 0.289998 331.44 1.18665 339.838 7.20358C356.719 19.1667 369.606 46.7738 368.631 68.8477C368.138 79.8551 364.346 87.4058 358.487 90.7328H358.433L349.157 96.6318H349.093C343.255 99.8998 335.446 98.9913 327.038 92.9862C310.167 81.0113 297.281 53.416 298.255 31.3421C298.77 20.3229 302.615 12.7722 308.41 9.44518Z" fill="#263238"/>
<path d="M349.629 96.3251L358.466 90.6621H358.53C364.336 87.3232 368.17 79.7726 368.663 68.7769C369.092 58.9375 366.767 48.0008 362.568 37.8428L353.292 43.7417C357.502 53.8997 359.826 64.8364 359.387 74.6877C358.926 85.4238 355.241 92.8919 349.629 96.3251Z" fill="#263238"/>
<path d="M327.081 92.9744C310.21 80.9995 297.324 53.4042 298.298 31.3303C299.273 9.25641 313.766 1.05687 330.605 13.02C347.443 24.983 360.372 52.5901 359.398 74.664C358.423 96.7379 343.951 104.937 327.081 92.9744Z" fill="#455A64"/>
<path d="M341.22 91.4171C351.171 91.9481 352.788 79.6192 353.003 74.3102C353.86 54.8436 342.013 29.4781 327.134 18.919C323.964 16.4731 320.275 14.9696 316.423 14.5537C306.482 14.0228 304.865 26.3516 304.64 31.6607C303.783 51.1273 315.619 76.4928 330.508 87.1109C333.678 89.5568 337.368 91.0603 341.22 91.4761V91.4171Z" fill="white"/>
<path d="M326.899 56.6487C327.016 56.649 327.132 56.625 327.241 56.5779C327.465 56.4979 327.659 56.339 327.792 56.1258C327.926 55.9126 327.992 55.6568 327.98 55.3981V27.2837C327.98 26.9708 327.868 26.6707 327.667 26.4494C327.466 26.2282 327.193 26.1039 326.909 26.1039C326.625 26.1039 326.353 26.2282 326.152 26.4494C325.951 26.6707 325.838 26.9708 325.838 27.2837V51.9767L313.916 35.1057C313.74 34.8554 313.481 34.6924 313.195 34.6525C312.91 34.6127 312.622 34.6993 312.395 34.8933C312.168 35.0873 312.02 35.3728 311.984 35.687C311.947 36.0012 312.026 36.3183 312.202 36.5686L326.074 56.1885C326.171 56.3282 326.296 56.442 326.439 56.5217C326.581 56.6013 326.739 56.6447 326.899 56.6487Z" fill="#263238"/>
<path d="M333.047 77.4484C333.096 77.4592 333.147 77.4592 333.197 77.4484C333.311 77.4101 333.406 77.3248 333.464 77.2105C333.522 77.0962 333.538 76.9616 333.508 76.8349L327.498 54.5487C327.464 54.4219 327.386 54.3153 327.28 54.2523C327.175 54.1892 327.051 54.1749 326.936 54.2124C326.821 54.25 326.724 54.3363 326.667 54.4525C326.61 54.5686 326.597 54.7051 326.631 54.8318L332.629 77.1181C332.66 77.2136 332.716 77.2964 332.791 77.3555C332.866 77.4146 332.955 77.447 333.047 77.4484Z" fill="#447143"/>
<path d="M327.241 49.8176C325.249 48.4137 323.546 49.3811 323.439 51.9766C323.445 53.3923 323.755 54.7864 324.343 56.0451C324.931 57.3039 325.781 58.3919 326.824 59.2206C328.805 60.6363 330.508 59.6689 330.626 57.0733C330.617 55.6565 330.306 54.2618 329.718 53.0015C329.13 51.7413 328.282 50.6507 327.241 49.8176Z" fill="#447143"/>
<path d="M152.256 302.529L165.303 294.223L160.954 291.462L147.907 299.756L152.256 302.529Z" fill="#619B60"/>
<path d="M178.36 285.929L191.418 277.623L187.058 274.863L174.011 283.157L178.36 285.929Z" fill="#619B60"/>
<path d="M172.994 282.543C172.994 289.48 168.581 297.881 163.128 301.42C160.226 303.272 157.612 303.331 155.812 301.939C155.087 301.311 154.491 300.52 154.064 299.619C153.638 298.718 153.39 297.727 153.338 296.713C153.704 296.524 154.062 296.315 154.409 296.087C159.861 292.631 164.275 284.195 164.275 277.211C164.28 276.694 164.251 276.177 164.189 275.665C165.006 275.189 165.904 274.905 166.826 274.832C167.748 274.759 168.674 274.898 169.545 275.24C171.687 276.231 172.994 278.792 172.994 282.543Z" fill="#263238"/>
<path d="M173.883 268.291L173.701 268.173C170.959 266.569 167.274 266.864 163.128 269.483C154.72 274.827 147.897 287.829 147.897 298.529C147.897 303.909 149.621 307.673 152.406 309.419C155.191 311.165 158.951 310.87 163.118 308.239C171.526 302.895 178.339 289.882 178.339 279.181C178.35 273.801 176.657 270.037 173.883 268.291ZM163.171 301.396C160.258 303.249 157.644 303.308 155.845 301.904C154.259 300.724 153.295 298.364 153.295 295.12C153.295 288.194 157.719 279.783 163.171 276.243C165.656 274.662 167.917 274.391 169.598 275.205C171.676 276.184 172.983 278.744 172.983 282.52C172.994 289.504 168.581 297.939 163.128 301.42L163.171 301.396Z" fill="#263238"/>
<path d="M170.102 275.523L169.984 275.453C168.206 274.403 165.796 274.603 163.128 276.29C157.676 279.759 153.252 288.194 153.252 295.167C153.252 298.706 154.323 301.066 156.177 302.246C158.03 303.426 160.461 303.19 163.128 301.467C168.581 297.999 172.994 289.563 172.994 282.59C172.994 279.098 171.891 276.644 170.102 275.523ZM163.128 298.942C160.793 300.429 158.694 300.476 157.237 299.343C155.973 298.364 155.191 296.488 155.191 293.893C155.341 290.86 156.138 287.909 157.517 285.28C158.896 282.65 160.819 280.415 163.128 278.756C163.879 278.179 164.741 277.803 165.647 277.657C166.552 277.512 167.476 277.601 168.345 277.918C170.016 278.709 171.066 280.762 171.066 283.817C170.917 286.849 170.12 289.798 168.741 292.426C167.362 295.054 165.439 297.287 163.128 298.942Z" fill="#619B60"/>
<path d="M204.465 269.318L217.522 261.024L213.173 258.251L200.116 266.557L204.465 269.318Z" fill="#619B60"/>
<path d="M230.58 252.718L243.626 244.424L239.277 241.652L226.22 249.957L230.58 252.718Z" fill="#619B60"/>
<path d="M256.684 236.119L269.731 227.825L265.382 225.052L252.324 233.358L256.684 236.119Z" fill="#619B60"/>
<path d="M191.718 158.925C191.854 158.724 192.045 158.576 192.263 158.503C192.481 158.43 192.714 158.436 192.929 158.518C193.144 158.601 193.329 158.757 193.458 158.964C193.587 159.171 193.653 159.417 193.646 159.668C193.73 160.34 193.667 161.023 193.464 161.663C193.261 162.303 192.923 162.881 192.478 163.349C191.621 164.163 190.754 163.833 190.55 162.606C190.467 161.934 190.53 161.251 190.733 160.611C190.936 159.971 191.273 159.393 191.718 158.925Z" fill="#619B60"/>
<path d="M201.765 164.139L193.035 158.583L191.118 163.668L199.88 169.236L201.765 164.139Z" fill="#619B60"/>
<path d="M200.426 164.458C201.283 163.656 202.14 163.986 202.354 165.213C202.433 165.884 202.368 166.565 202.163 167.203C201.958 167.84 201.62 168.415 201.176 168.882C200.319 169.696 199.452 169.366 199.248 168.139C199.17 167.467 199.236 166.784 199.44 166.144C199.645 165.505 199.983 164.928 200.426 164.458Z" fill="#619B60"/>
<path d="M267.524 210.989C267.524 211.225 267.524 211.437 267.524 211.673C267.524 212.145 267.524 212.629 267.524 213.113C265.789 212.298 263.529 212.57 261.043 214.151C255.591 217.619 251.167 226.055 251.167 233.027C251.167 236.26 252.131 238.596 253.717 239.811C253.272 240.16 252.81 240.483 252.335 240.779L251.831 241.062L250.321 247.326L241.58 241.958C238.817 240.201 237.114 236.449 237.114 231.093C237.114 220.392 243.926 207.391 252.335 202.034C256.491 199.392 260.251 199.12 263.046 200.854L271.616 206.14L271.798 206.258L267.524 210.989Z" fill="#455A64"/>
<path d="M271.787 206.152L271.605 206.034C268.863 204.429 265.178 204.724 261.033 207.343C252.624 212.688 245.801 225.689 245.801 236.39C245.801 241.77 247.525 245.533 250.31 247.279C253.095 249.025 256.855 248.73 261.022 246.099C269.431 240.755 276.243 227.742 276.243 217.041C276.275 211.661 274.551 207.898 271.787 206.152ZM261.075 239.257C258.162 241.109 255.548 241.168 253.749 239.764C252.163 238.584 251.199 236.225 251.199 232.98C251.199 226.055 255.623 217.643 261.075 214.104C263.561 212.523 265.821 212.251 267.556 213.065C269.634 214.045 270.941 216.605 270.941 220.38C270.919 227.364 266.485 235.8 261.033 239.257H261.075Z" fill="#263238"/>
<path d="M270.919 220.427C270.919 227.364 266.506 235.764 261.054 239.304C258.151 241.156 255.538 241.215 253.738 239.823C253.012 239.195 252.417 238.404 251.99 237.503C251.563 236.602 251.316 235.611 251.264 234.596C251.63 234.408 251.987 234.199 252.335 233.971C257.787 230.514 262.2 222.079 262.2 215.095C262.205 214.578 262.177 214.061 262.114 213.549C262.932 213.073 263.83 212.789 264.752 212.716C265.674 212.643 266.6 212.782 267.47 213.124C269.591 214.115 270.919 216.652 270.919 220.427Z" fill="#263238"/>
<path d="M268.006 213.384L267.888 213.301C266.11 212.263 263.689 212.452 261.033 214.151C255.58 217.619 251.156 226.043 251.156 233.027C251.156 236.567 252.228 238.926 254.081 240.106C255.934 241.286 258.365 241.038 261.033 239.316C266.485 235.859 270.898 227.423 270.898 220.439C270.919 216.959 269.848 214.516 268.006 213.384ZM261.033 236.791C258.687 238.289 256.587 238.336 255.141 237.204C253.867 236.225 253.095 234.349 253.095 231.753C253.245 228.721 254.042 225.77 255.421 223.14C256.8 220.51 258.723 218.275 261.033 216.616C263.025 215.342 264.846 215.118 266.238 215.779C267.909 216.569 268.959 218.622 268.959 221.678C268.81 224.706 268.015 227.653 266.638 230.279C265.26 232.905 263.34 235.136 261.033 236.791Z" fill="#619B60"/>
<path d="M252.324 223.955L276.961 208.287C279.821 206.458 270.534 195.781 263.625 195.062C259.821 194.556 255.963 194.958 252.313 196.241C252.313 196.241 257.573 203.662 256.673 207.874C255.773 212.086 252.324 223.955 252.324 223.955Z" fill="#619B60"/>
<path d="M217.522 179.677C217.522 179.677 253.235 199.521 254.777 200.713C256.32 201.905 254.777 215.743 252.324 223.955C249.871 232.166 246.101 244.79 244.59 248.329C243.08 251.869 241.109 253.19 237.489 255.491L211.781 271.854L176.979 276.526L163.161 268.268L166.76 243.362C166.76 243.362 203.747 221.69 208.814 218.469C213.88 215.248 228.866 200.135 217.522 179.677Z" fill="#619B60"/>
<path opacity="0.2" d="M217.522 179.677C217.522 179.677 253.235 199.521 254.777 200.713C256.32 201.905 254.777 215.743 252.324 223.955C249.871 232.166 246.101 244.79 244.59 248.329C243.08 251.869 241.109 253.19 237.489 255.491L211.781 271.854L176.979 276.526L163.161 268.268L166.76 243.362C166.76 243.362 203.747 221.69 208.814 218.469C213.88 215.248 228.866 200.135 217.522 179.677Z" fill="black"/>
<path d="M255.463 219.224C258.676 209.715 261.076 201.834 260.668 196.513C260.176 190.201 258.033 185.045 248.586 182.45C239.138 179.854 225.931 179.901 225.931 179.901L221.914 182.462C221.914 182.462 249.079 199.804 252.163 201.692C254.049 202.872 256.062 208.075 252.367 223.967L252.999 224.368C253.31 224.58 254.434 222.28 255.463 219.224Z" fill="#619B60"/>
<path opacity="0.3" d="M255.463 219.224C258.676 209.715 261.076 201.834 260.668 196.513C260.176 190.201 258.033 185.045 248.586 182.45C239.138 179.854 225.931 179.901 225.931 179.901L221.914 182.462C221.914 182.462 249.079 199.804 252.163 201.692C254.049 202.872 256.062 208.075 252.367 223.967L252.999 224.368C253.31 224.58 254.434 222.28 255.463 219.224Z" fill="white"/>
<path d="M234.886 190.744L239.277 187.983C239.277 187.983 239.02 171.218 232.615 167.148C226.209 163.078 204.465 165.85 204.465 165.85L200.116 168.611L234.886 190.744Z" fill="#619B60"/>
<path d="M220.639 170.982C218.55 172.315 218.55 174.463 220.639 175.784C221.81 176.441 223.106 176.783 224.42 176.783C225.735 176.783 227.03 176.441 228.202 175.784C230.28 174.463 230.28 172.304 228.202 170.982C227.029 170.331 225.734 169.992 224.42 169.992C223.107 169.992 221.812 170.331 220.639 170.982Z" fill="#F0F0F0"/>
<path d="M227.323 178.993C225.856 179.937 225.856 181.459 227.323 182.391C228.152 182.858 229.07 183.101 230.001 183.101C230.932 183.101 231.85 182.858 232.679 182.391C234.157 181.459 234.157 179.937 232.679 178.993C231.849 178.532 230.931 178.291 230.001 178.291C229.071 178.291 228.154 178.532 227.323 178.993Z" fill="#F0F0F0"/>
<path d="M210.495 168.847C209.017 169.779 209.017 171.301 210.495 172.245C211.326 172.706 212.243 172.946 213.173 172.946C214.103 172.946 215.021 172.706 215.851 172.245C217.329 171.301 217.329 169.779 215.851 168.847C215.022 168.38 214.104 168.136 213.173 168.136C212.242 168.136 211.324 168.38 210.495 168.847Z" fill="#F0F0F0"/>
<path d="M235.571 185.883C236.428 185.069 237.285 185.399 237.499 186.626C237.578 187.299 237.513 187.982 237.308 188.621C237.103 189.261 236.765 189.838 236.321 190.307C236.184 190.508 235.993 190.656 235.776 190.729C235.558 190.802 235.325 190.797 235.11 190.714C234.895 190.631 234.709 190.475 234.581 190.268C234.452 190.061 234.386 189.815 234.393 189.564C234.31 188.891 234.374 188.207 234.579 187.567C234.784 186.927 235.124 186.35 235.571 185.883Z" fill="#619B60"/>
<path d="M245.565 191.098L236.824 185.541L234.918 190.626L243.669 196.183L245.565 191.098Z" fill="#619B60"/>
<path d="M244.216 191.416C244.352 191.215 244.543 191.068 244.761 190.995C244.979 190.922 245.212 190.927 245.427 191.01C245.642 191.093 245.827 191.249 245.956 191.455C246.085 191.662 246.151 191.909 246.144 192.159C246.225 192.832 246.161 193.516 245.956 194.156C245.751 194.796 245.412 195.373 244.965 195.84C244.108 196.654 243.251 196.312 243.037 195.097C242.957 194.425 243.023 193.741 243.227 193.102C243.432 192.462 243.77 191.885 244.216 191.416Z" fill="#619B60"/>
<path d="M244.216 191.416C244.352 191.215 244.543 191.068 244.761 190.995C244.979 190.922 245.212 190.927 245.427 191.01C245.642 191.093 245.827 191.249 245.956 191.455C246.085 191.662 246.151 191.909 246.144 192.159C246.225 192.832 246.161 193.516 245.956 194.156C245.751 194.796 245.412 195.373 244.965 195.84C244.108 196.654 243.251 196.312 243.037 195.097C242.957 194.425 243.023 193.741 243.227 193.102C243.432 192.462 243.77 191.885 244.216 191.416Z" fill="black"/>
<path d="M169.62 273.105C169.62 273.341 169.62 273.553 169.62 273.789C169.62 274.261 169.62 274.745 169.62 275.228C167.884 274.414 165.624 274.686 163.193 276.267C157.74 279.735 153.317 288.171 153.317 295.143C153.317 298.376 154.281 300.712 155.866 301.927C155.421 302.276 154.96 302.599 154.484 302.895L153.981 303.178L152.47 309.442L143.73 304.074C140.966 302.316 139.263 298.565 139.263 293.209C139.263 282.508 146.076 269.507 154.484 264.15C158.64 261.508 162.4 261.236 165.196 262.97L173.765 268.256L173.947 268.374L169.62 273.105Z" fill="#455A64"/>
<path d="M143.548 254.382L137.024 279.287L150.082 287.593L156.841 262.841L143.548 254.382Z" fill="#619B60"/>
<path opacity="0.2" d="M143.548 254.382L137.024 279.287L150.082 287.593L156.841 262.841L143.548 254.382Z" fill="black"/>
<path d="M143.548 254.382C143.548 254.382 150.949 261.307 156.841 262.841C164.574 264.906 176.871 265.13 181.231 265.46C187.894 265.967 192.928 265.956 195.285 265.023C198.338 263.844 206.543 258.594 208.813 257.154C213.162 254.394 215.016 243.528 203.029 240.555C194.925 238.705 186.669 237.776 178.392 237.782L143.548 254.382Z" fill="#619B60"/>
<path d="M217.361 251.196C216.989 252.222 216.737 253.297 216.612 254.393C216.266 255.533 216.185 256.75 216.376 257.933C217.193 259.42 218.477 260.525 219.986 261.036C221.072 261.302 222.197 261.319 223.29 261.085C224.383 260.852 225.42 260.373 226.338 259.679C228.555 258.216 230.226 256.446 233.375 255.455C235.626 254.93 237.746 253.872 239.588 252.352C241.334 250.807 243.669 246.536 240.327 245.545C236.985 244.554 229.723 248.046 223.103 248.365L217.361 251.196Z" fill="#263238"/>
<path d="M217.361 246.642V252.093C217.564 252.705 217.916 253.244 218.379 253.65C218.843 254.056 219.398 254.313 219.986 254.393C220.524 254.48 221.073 254.415 221.582 254.205C222.384 253.867 223.079 253.279 223.582 252.511C224.084 251.744 224.372 250.832 224.41 249.887L224.602 246.642H217.361Z" fill="#FFA8A7"/>
<path d="M226.788 212.936C226.788 219.719 225.052 249.049 225.052 249.049C225.052 249.049 222.535 252.588 217.061 249.049L215.219 216.274L226.788 212.936Z" fill="#263238"/>
<path d="M198.081 241.84L215.219 230.963C215.921 230.557 216.51 229.947 216.92 229.199C217.33 228.452 217.547 227.595 217.547 226.721C217.547 225.848 217.33 224.991 216.92 224.243C216.51 223.496 215.921 222.886 215.219 222.48L202.451 214.363C201.732 213.962 200.938 213.753 200.132 213.753C199.326 213.753 198.532 213.962 197.813 214.363L180.674 225.241C179.975 225.65 179.39 226.26 178.982 227.008C178.574 227.755 178.358 228.61 178.358 229.482C178.358 230.354 178.574 231.21 178.982 231.957C179.39 232.704 179.975 233.315 180.674 233.723L193.442 241.84C194.161 242.242 194.956 242.451 195.761 242.451C196.567 242.451 197.362 242.242 198.081 241.84Z" fill="#619B60"/>
<path d="M198.081 241.84L215.219 230.963C215.921 230.557 216.51 229.947 216.92 229.199C217.33 228.452 217.547 227.595 217.547 226.721C217.547 225.848 217.33 224.991 216.92 224.243C216.51 223.496 215.921 222.886 215.219 222.48L202.451 214.363C201.732 213.962 200.938 213.753 200.132 213.753C199.326 213.753 198.532 213.962 197.813 214.363L180.674 225.241C179.975 225.65 179.39 226.26 178.982 227.008C178.574 227.755 178.358 228.61 178.358 229.482C178.358 230.354 178.574 231.21 178.982 231.957C179.39 232.704 179.975 233.315 180.674 233.723L193.442 241.84C194.161 242.242 194.956 242.451 195.761 242.451C196.567 242.451 197.362 242.242 198.081 241.84Z" fill="white"/>
<path d="M180.674 228.19L193.442 236.307C194.161 236.708 194.956 236.917 195.761 236.917C196.567 236.917 197.362 236.708 198.081 236.307L215.219 225.43C215.499 225.325 215.742 225.127 215.914 224.862C216.086 224.597 216.179 224.28 216.179 223.955C216.179 223.629 216.086 223.312 215.914 223.048C215.742 222.783 215.499 222.585 215.219 222.48L202.451 214.363C201.732 213.962 200.938 213.753 200.132 213.753C199.326 213.753 198.532 213.962 197.813 214.363L180.674 225.241C180.394 225.345 180.151 225.544 179.979 225.808C179.807 226.073 179.715 226.39 179.715 226.716C179.715 227.041 179.807 227.358 179.979 227.623C180.151 227.887 180.394 228.086 180.674 228.19Z" fill="#619B60"/>
<path d="M191.118 155.987L188.943 165.862L179.603 166.487L181.617 152.802L191.118 155.987Z" fill="#FFA8A7"/>
<path d="M200.223 148.554C200.223 148.554 201.294 152.731 200.855 152.967C200.18 153.08 199.494 153.08 198.82 152.967L200.223 148.554Z" fill="#F28F8F"/>
<path d="M198.434 135.223C199.934 137.169 201.305 140.367 200.244 148.2C199.087 156.766 197.652 157.757 196.495 158.583C194.985 159.668 188.943 159.09 187.24 157.721C185.194 156.081 182.034 150.879 181.285 145.746C180.406 139.718 182.238 133.028 186.266 131.884C191.932 130.268 197.159 133.571 198.434 135.223Z" fill="#FFA8A7"/>
<path d="M180.674 155.574C182.12 157.226 185.087 157.674 186.951 158.052C188.815 158.429 194.546 158.842 196.238 154.347C197.93 149.852 196.774 146.619 198.852 145.534C200.93 144.449 203.008 143.741 203.554 143.174C204.1 142.608 204.111 135.211 198.53 131.377C192.95 127.542 184.402 126.657 178.778 134.432C174.515 140.437 176.261 150.501 180.674 155.574Z" fill="#455A64"/>
<path d="M186.298 158.111C187.744 158.252 192.318 157.462 193.699 155.385C195.081 153.309 195.638 149.593 195.842 147.646C195.86 146.879 196.116 146.143 196.566 145.557C197.015 144.972 197.633 144.572 198.316 144.425C199.698 143.941 202.751 142.29 202.751 142.29V141.369C203.735 141.301 204.723 141.301 205.707 141.369C206.35 141.499 205.996 142.549 204.368 143.458C202.74 144.366 198.273 146.124 197.588 146.726C196.902 147.327 196.581 149.864 196.035 152.566C195.488 155.267 193.796 159.302 186.298 158.111Z" fill="#263238"/>
<path d="M199.152 169.283L204.507 165.897C205.022 164.187 204.197 163.325 202.74 163.432C201.283 163.538 201.733 161.98 200.844 161.544C199.677 160.954 199.012 161.284 198.488 161.013C197.963 160.742 197.738 160.057 197.052 159.975C193.989 159.656 191.9 164.47 191.9 164.47L199.152 169.283Z" fill="#F28F8F"/>
<path d="M162.796 212.605C162.796 212.605 186.458 199.687 190.582 197.598C194.706 195.51 201.176 192.478 204.615 192.478C205.958 192.6 207.217 193.252 208.159 194.314C209.102 195.376 209.665 196.777 209.745 198.259C209.79 200.535 209.672 202.811 209.392 205.066C202.891 207.415 196.247 209.256 189.511 210.576C179.667 212.464 162.796 212.605 162.796 212.605Z" fill="#263238"/>
<path d="M165.367 205.137C165.367 210.493 164.907 216.062 166.931 219.979C168.956 223.896 179.924 232.957 190.25 231.057C196.999 229.807 217.029 219.649 217.029 219.649C217.029 219.649 226.745 215.72 226.788 212.924C226.852 208.806 226.595 203.002 218.122 203.249C210.399 203.474 187.615 208.712 187.615 208.712L165.367 205.137Z" fill="#455A64"/>
<path d="M171.976 162.7C175.64 158.488 178.114 158.134 179.871 158.653C183.908 159.926 187.817 161.65 191.536 163.797C191.536 163.797 190.122 178.875 196.817 183.217V206.718C196.817 206.718 196.613 209.266 193.699 211.803C191.129 214.033 185.312 216.286 178.371 215.649C170.123 214.894 165.367 205.137 165.367 205.137C165.367 205.137 165.153 185.918 166.321 178.285C167.692 169.378 170.712 164.163 171.976 162.7Z" fill="#455A64"/>
<path d="M196.817 184.361C196.817 184.361 192.768 180.822 191.536 176.22C191.536 176.22 192.018 183.441 196.817 187.098V184.361Z" fill="#263238"/>
<path d="M234.296 195.451C236.22 195.538 238.111 194.892 239.652 193.622C239.652 193.622 241.516 189.635 243.808 189.977C243.808 189.977 244.215 188.278 243.273 187.723C242.33 187.169 241.923 187.322 241.538 186.732C241.152 186.143 241.109 185.045 239.395 185.045C238.688 185.045 238.785 184.491 237.071 184.267C235.357 184.043 233.665 188.396 232.411 188.396L234.296 195.451Z" fill="#FFA8A7"/>
<path d="M191.536 163.797C197.416 164.8 199.548 166.723 201.69 168.906C203.833 171.088 216.944 185.576 216.944 185.576L232.818 188.089C233.653 188.833 234.265 189.836 234.575 190.968C235.218 193.021 234.639 195.262 234.029 195.793C234.029 195.793 218.283 196.832 215.187 196.183C212.091 195.534 196.763 184.326 196.763 184.326C195.298 183.109 194.069 181.581 193.149 179.832C192.229 178.083 191.637 176.149 191.407 174.144C190.411 167.03 191.536 163.797 191.536 163.797Z" fill="#455A64"/>
<path d="M177.418 226.114L153.092 258.818C152.822 258.855 152.55 258.875 152.278 258.877C151.313 258.893 150.36 258.646 149.503 258.157L128.958 245.085L127.566 244.2C126.805 243.716 126.173 241.734 126.173 239.776V234.266C126.173 228.606 127.524 223.046 130.093 218.144C132.661 213.242 136.356 209.171 140.805 206.34L165.335 190.744L191.439 207.343L177.418 226.114Z" fill="#619B60"/>
<g opacity="0.1">
<path d="M177.418 226.114L153.092 258.818C152.822 258.855 152.55 258.875 152.278 258.877C151.313 258.893 150.36 258.646 149.503 258.157L128.958 245.085L127.566 244.2C126.805 243.716 126.173 241.734 126.173 239.776V234.266C126.173 228.606 127.524 223.046 130.093 218.144C132.661 213.242 136.356 209.171 140.805 206.34L165.335 190.744L191.439 207.343L177.418 226.114Z" fill="black"/>
</g>
<path d="M169.031 237.393L191.407 207.355L165.303 190.755L140.784 206.341C137.612 208.363 134.814 211.024 132.536 214.186L169.031 237.393Z" fill="#619B60"/>
<path d="M191.407 231.47C191.407 233.428 190.786 235.411 190.015 235.894L188.622 236.779L155.03 258.145C154.419 258.508 153.75 258.736 153.06 258.818C152.789 258.855 152.518 258.875 152.245 258.877V250.866C152.245 245.205 153.597 239.643 156.168 234.741C158.738 229.839 162.436 225.769 166.888 222.94L169.663 221.182L191.407 207.343V231.47Z" fill="#619B60"/>
<g opacity="0.2">
<path d="M191.407 231.47C191.407 233.428 190.786 235.411 190.015 235.894L188.622 236.779L155.03 258.145C154.419 258.508 153.75 258.736 153.06 258.818C152.789 258.855 152.518 258.875 152.245 258.877V250.866C152.245 245.205 153.597 239.643 156.168 234.741C158.738 229.839 162.436 225.769 166.888 222.94L169.663 221.182L191.407 207.343V231.47Z" fill="black"/>
</g>
<path d="M198.616 271.937L211.759 271.89L230.569 259.927L212.145 274.591L198.273 274.804L198.616 271.937Z" fill="#E0E0E0"/>
<path d="M166.706 292.536C166.706 292.536 190.4 282.697 192.414 281.54C194.778 279.945 197.02 278.142 199.12 276.149C199.548 275.525 199.749 274.747 199.684 273.967C199.618 273.188 199.291 272.464 198.766 271.937C198.766 271.937 189.126 271.453 186.651 272.291C185.269 272.751 162.968 280.632 162.968 280.632L166.706 292.536Z" fill="#E0E0E0"/>
<path d="M165.646 281.54C163.685 279.688 161.715 280.455 161.232 283.239C161.048 284.776 161.196 286.338 161.663 287.8C162.13 289.261 162.904 290.581 163.921 291.651C165.881 293.504 167.852 292.749 168.334 289.952C168.517 288.416 168.37 286.854 167.902 285.393C167.435 283.931 166.662 282.611 165.646 281.54Z" fill="#455A64"/>
</g>
<defs>
<clipPath id="clip0_1825_3712">
<rect width="468" height="428" fill="white" transform="translate(0.5)"/>
</clipPath>
</defs>
</svg>
